<svg width="780" height="583" fill="none" xmlns="http://www.w3.org/2000/svg"><path d="M0 24C0 10.745 10.745 0 24 0h732c13.255 0 24 10.745 24 24v572c0 13.255-10.745 24-24 24H24c-13.255 0-24-10.745-24-24V24z" fill="#fff"/><mask id="prefix__a" maskUnits="userSpaceOnUse" x="0" y="0" width="780" height="620"><path d="M0 24C0 10.745 10.745 0 24 0h732c13.255 0 24 10.745 24 24v572c0 13.255-10.745 24-24 24H24c-13.255 0-24-10.745-24-24V24z" fill="#fff"/></mask><g mask="url(#prefix__a)"><path d="M112.948 81.09V92h2.237v-7.127h.091l2.823 7.074h1.524l2.823-7.047h.09V92h2.237V81.09h-2.844l-3.004 7.33h-.128l-3.004-7.33h-2.845zm23.751 5.456c0-3.57-2.216-5.604-5.109-5.604-2.908 0-5.108 2.035-5.108 5.604 0 3.552 2.2 5.603 5.108 5.603 2.893 0 5.109-2.035 5.109-5.603zm-2.339 0c0 2.311-1.097 3.563-2.77 3.563-1.678 0-2.77-1.252-2.77-3.563 0-2.312 1.092-3.564 2.77-3.564 1.673 0 2.77 1.252 2.77 3.564zm13.172-5.455h-2.296v6.86h-.096l-4.709-6.86h-2.024V92h2.307v-6.866h.08L145.54 92h1.992V81.09zM152.845 92h7.777v-1.886h-4.581v-.074l1.593-1.561c2.242-2.045 2.844-3.068 2.844-4.31 0-1.89-1.544-3.227-3.883-3.227-2.29 0-3.862 1.369-3.856 3.51h2.189c-.005-1.044.655-1.683 1.651-1.683.959 0 1.673.596 1.673 1.555 0 .868-.533 1.465-1.524 2.419l-3.883 3.595V92zm14.195-10.91h-2.168l-2.701 1.71v2.046l2.498-1.566h.064V92h2.307V81.09zm165.493 1.903h3.34V92h2.279v-9.007h3.34V81.09h-8.959v1.902zm17.173-1.902v6.887c0 1.247-.874 2.147-2.216 2.147-1.337 0-2.216-.9-2.216-2.147v-6.887h-2.306v7.084c0 2.387 1.8 3.98 4.522 3.98 2.711 0 4.522-1.593 4.522-3.98v-7.084h-2.306zM353.91 92h7.372v-1.902h-5.065v-2.604h4.666v-1.902h-4.666v-2.6h5.044v-1.901h-7.351V92zm12.592 0h7.777v-1.886h-4.581v-.074l1.593-1.561c2.243-2.045 2.845-3.068 2.845-4.31 0-1.89-1.545-3.227-3.884-3.227-2.29 0-3.861 1.369-3.856 3.51h2.189c-.005-1.044.655-1.683 1.651-1.683.959 0 1.673.596 1.673 1.555 0 .868-.533 1.465-1.523 2.419l-3.884 3.595V92zm9.449 0h7.777v-1.886h-4.581v-.074l1.592-1.561c2.243-2.045 2.845-3.068 2.845-4.31 0-1.89-1.545-3.227-3.883-3.227-2.291 0-3.862 1.369-3.857 3.51h2.189c-.005-1.044.656-1.683 1.652-1.683.958 0 1.672.596 1.672 1.555 0 .868-.532 1.465-1.523 2.419l-3.883 3.595V92zm180.453 0h2.248l2.072-7.132h.085L562.886 92h2.248l3.122-10.91h-2.52l-1.806 7.597h-.095l-1.987-7.596h-2.158l-1.992 7.58h-.09l-1.806-7.58h-2.52L556.404 92zm13.086 0h7.372v-1.902h-5.065v-2.604h4.666v-1.902h-4.666v-2.6h5.044v-1.901h-7.351V92zm13.052 0c3.324 0 5.337-2.056 5.337-5.465 0-3.399-2.013-5.444-5.305-5.444h-3.899V92h3.867zm-1.561-1.976v-6.957h1.47c2.046 0 3.127 1.044 3.127 3.468 0 2.434-1.081 3.489-3.132 3.489h-1.465zM592.996 92h7.777v-1.886h-4.581v-.074l1.592-1.561c2.243-2.045 2.845-3.068 2.845-4.31 0-1.89-1.545-3.227-3.883-3.227-2.291 0-3.862 1.369-3.857 3.51h2.189c-.005-1.044.655-1.683 1.652-1.683.958 0 1.672.596 1.672 1.555 0 .868-.533 1.465-1.523 2.419l-3.883 3.595V92zm13.48.15c2.45 0 4.203-1.349 4.198-3.213.005-1.358-.858-2.328-2.461-2.53v-.085c1.219-.219 2.061-1.082 2.056-2.307.005-1.72-1.502-3.073-3.761-3.073-2.237 0-3.92 1.31-3.952 3.196h2.21c.027-.831.789-1.37 1.731-1.37.933 0 1.556.566 1.55 1.386.006.857-.724 1.438-1.773 1.438h-1.018v1.694h1.018c1.235 0 2.008.618 2.003 1.497.005.868-.741 1.465-1.796 1.465-1.017 0-1.779-.533-1.821-1.332h-2.323c.038 1.907 1.742 3.233 4.139 3.233z" fill="#C4C7D0"/><path fill="#FFF3E1" fill-opacity=".5" d="M332 110h200v120H332z"/><path d="M332 110h4v120h-4V110z" fill="#FDDFC6" fill-opacity=".5"/><path opacity=".88" d="M346.697 174h1.56l1.752-6.124h.068l1.747 6.124h1.56l2.463-8.727h-1.701l-1.572 6.417h-.077l-1.683-6.417h-1.547l-1.679 6.413h-.081l-1.572-6.413h-1.701l2.463 8.727zm12.365.128c1.917 0 3.136-1.351 3.136-3.375 0-2.029-1.219-3.384-3.136-3.384-1.918 0-3.137 1.355-3.137 3.384 0 2.024 1.219 3.375 3.137 3.375zm.008-1.236c-1.061 0-1.581-.946-1.581-2.143 0-1.198.52-2.157 1.581-2.157 1.044 0 1.564.959 1.564 2.157 0 1.197-.52 2.143-1.564 2.143zm4.437 1.108h1.543v-3.848c0-.831.626-1.419 1.475-1.419.259 0 .583.047.715.089v-1.419a3.772 3.772 0 00-.554-.042c-.75 0-1.376.426-1.615 1.184h-.068v-1.09h-1.496V174zm4.758 0h1.543v-2.199l.562-.601 2.003 2.8h1.845l-2.684-3.72 2.535-2.825h-1.802l-2.353 2.629h-.106v-4.811h-1.543V174z" fill="#EFD1B8"/><path opacity=".88" d="M491.763 166.727h-1.254l-1.807 1.161v1.208l1.701-1.087h.042V174h1.318v-7.273zm1.846 7.273h4.986v-1.101h-3.168v-.05l1.254-1.274c1.413-1.357 1.804-2.017 1.804-2.838 0-1.218-.991-2.109-2.454-2.109-1.442 0-2.464.895-2.464 2.276h1.253c0-.742.469-1.207 1.193-1.207.693 0 1.208.422 1.208 1.108 0 .607-.37 1.04-1.087 1.768l-2.525 2.475V174zm8.899.138c1.755.004 2.802-1.381 2.802-3.767 0-2.372-1.054-3.743-2.802-3.743-1.747 0-2.798 1.367-2.802 3.743 0 2.383 1.048 3.767 2.802 3.767zm0-1.111c-.905 0-1.473-.909-1.47-2.656.004-1.733.568-2.646 1.47-2.646.906 0 1.471.913 1.474 2.646 0 1.747-.565 2.656-1.474 2.656zm6.477.973h1.285v-3.317c0-.671.448-1.125 1.002-1.125.543 0 .916.365.916.926V174h1.261v-3.402c0-.614.365-1.04.987-1.04.518 0 .93.305.93.98V174h1.289v-3.661c0-1.218-.703-1.865-1.704-1.865-.792 0-1.396.391-1.637.998h-.057c-.21-.618-.739-.998-1.474-.998-.732 0-1.278.377-1.506.998h-.064v-.927h-1.228V174zm8.974 0h1.286v-5.455h-1.286V174zm.647-6.229c.408 0 .742-.312.742-.696 0-.387-.334-.699-.742-.699-.412 0-.746.312-.746.699 0 .384.334.696.746.696zm3.246 3.033c0-.788.476-1.243 1.154-1.243.664 0 1.062.437 1.062 1.165V174h1.286v-3.473c.003-1.307-.742-2.053-1.868-2.053-.817 0-1.378.391-1.627.998h-.064v-.927h-1.228V174h1.285v-3.196z" fill="#F6C9A3" fill-opacity=".6"/><path fill="#FFF3E1" fill-opacity=".5" d="M332 449h200v144H332z"/><path d="M332 449h4v144h-4V449z" fill="#FDDFC6" fill-opacity=".5"/><path opacity=".88" d="M346.697 525h1.56l1.752-6.124h.068l1.747 6.124h1.56l2.463-8.727h-1.701l-1.572 6.417h-.077l-1.683-6.417h-1.547l-1.679 6.413h-.081l-1.572-6.413h-1.701l2.463 8.727zm12.365.128c1.917 0 3.136-1.351 3.136-3.375 0-2.029-1.219-3.384-3.136-3.384-1.918 0-3.137 1.355-3.137 3.384 0 2.024 1.219 3.375 3.137 3.375zm.008-1.236c-1.061 0-1.581-.946-1.581-2.143 0-1.198.52-2.157 1.581-2.157 1.044 0 1.564.959 1.564 2.157 0 1.197-.52 2.143-1.564 2.143zm4.437 1.108h1.543v-3.848c0-.831.626-1.419 1.475-1.419.259 0 .583.047.715.089v-1.419a3.772 3.772 0 00-.554-.042c-.75 0-1.376.426-1.615 1.184h-.068v-1.09h-1.496V525zm4.758 0h1.543v-2.199l.562-.601 2.003 2.8h1.845l-2.684-3.72 2.535-2.825h-1.802l-2.353 2.629h-.106v-4.811h-1.543V525z" fill="#EFD1B8"/><path opacity=".88" d="M491.313 517.727h-1.253l-1.808 1.161v1.208l1.701-1.087h.043V525h1.317v-7.273zm1.716 5.924h3.469V525h1.257v-1.349h.931v-1.084h-.931v-4.84h-1.64l-3.086 4.876v1.048zm3.483-1.084h-2.134v-.056l2.077-3.292h.057v3.348zm5.996 2.571c1.755.004 2.802-1.381 2.802-3.767 0-2.372-1.054-3.743-2.802-3.743-1.747 0-2.798 1.367-2.802 3.743 0 2.383 1.048 3.767 2.802 3.767zm0-1.111c-.905 0-1.473-.909-1.47-2.656.004-1.733.568-2.646 1.47-2.646.906 0 1.471.913 1.474 2.646 0 1.747-.565 2.656-1.474 2.656zm6.477.973h1.285v-3.317c0-.671.448-1.125 1.002-1.125.543 0 .916.365.916.926V525h1.261v-3.402c0-.614.365-1.04.987-1.04.518 0 .93.305.93.98V525h1.289v-3.661c0-1.218-.703-1.865-1.704-1.865-.792 0-1.396.391-1.637.998h-.057c-.21-.618-.739-.998-1.474-.998-.732 0-1.278.377-1.506.998h-.064v-.927h-1.228V525zm8.974 0h1.286v-5.455h-1.286V525zm.647-6.229c.408 0 .742-.312.742-.696 0-.387-.334-.699-.742-.699-.412 0-.746.312-.746.699 0 .384.334.696.746.696zm3.246 3.033c0-.788.476-1.243 1.154-1.243.664 0 1.062.437 1.062 1.165V525h1.286v-3.473c.003-1.307-.742-2.053-1.868-2.053-.817 0-1.378.391-1.627.998h-.064v-.927h-1.228V525h1.285v-3.196z" fill="#F6C9A3" fill-opacity=".6"/><path fill="#FFF3E1" fill-opacity=".5" d="M552 397h200v196H552z"/><path d="M552 397h4v196h-4V397z" fill="#FDDFC6" fill-opacity=".5"/><path opacity=".88" d="M566.697 499h1.56l1.752-6.124h.068l1.747 6.124h1.56l2.463-8.727h-1.701l-1.572 6.417h-.077l-1.683-6.417h-1.547l-1.679 6.413h-.081l-1.572-6.413h-1.701l2.463 8.727zm12.365.128c1.917 0 3.136-1.351 3.136-3.375 0-2.029-1.219-3.384-3.136-3.384-1.918 0-3.137 1.355-3.137 3.384 0 2.024 1.219 3.375 3.137 3.375zm.008-1.236c-1.061 0-1.581-.946-1.581-2.143 0-1.198.52-2.157 1.581-2.157 1.044 0 1.564.959 1.564 2.157 0 1.197-.52 2.143-1.564 2.143zm4.437 1.108h1.543v-3.848c0-.831.626-1.419 1.475-1.419.259 0 .583.047.715.089v-1.419a3.772 3.772 0 00-.554-.042c-.75 0-1.376.426-1.615 1.184h-.068v-1.09h-1.496V499zm4.758 0h1.543v-2.199l.562-.601 2.003 2.8h1.845l-2.684-3.72 2.535-2.825h-1.802l-2.353 2.629h-.106v-4.811h-1.543V499z" fill="#EFD1B8"/><path opacity=".88" d="M711.489 491.727h-1.253l-1.808 1.161v1.208l1.701-1.087h.043V499h1.317v-7.273zm4.372-.099c-1.577-.011-2.625 1.072-2.625 2.493.004 1.37.98 2.361 2.255 2.361.785 0 1.467-.38 1.818-1.005h.05c-.003 1.556-.568 2.483-1.573 2.483-.629 0-1.051-.363-1.182-.942h-1.297c.149 1.204 1.101 2.081 2.479 2.081 1.744 0 2.855-1.456 2.852-3.959-.004-2.649-1.382-3.505-2.777-3.512zm.003 1.065c.778 0 1.35.646 1.35 1.389.003.753-.597 1.399-1.364 1.399-.774 0-1.332-.611-1.335-1.389 0-.781.579-1.399 1.349-1.399zm6.644 6.445c1.755.004 2.802-1.381 2.802-3.767 0-2.372-1.054-3.743-2.802-3.743-1.747 0-2.798 1.367-2.802 3.743 0 2.383 1.048 3.767 2.802 3.767zm0-1.111c-.905 0-1.473-.909-1.47-2.656.004-1.733.568-2.646 1.47-2.646.906 0 1.471.913 1.474 2.646 0 1.747-.565 2.656-1.474 2.656zm6.477.973h1.285v-3.317c0-.671.448-1.125 1.002-1.125.543 0 .916.365.916.926V499h1.261v-3.402c0-.614.365-1.04.987-1.04.518 0 .93.305.93.98V499h1.289v-3.661c0-1.218-.703-1.865-1.704-1.865-.792 0-1.396.391-1.637.998h-.057c-.21-.618-.739-.998-1.474-.998-.732 0-1.278.377-1.506.998h-.064v-.927h-1.228V499zm8.974 0h1.286v-5.455h-1.286V499zm.647-6.229c.408 0 .742-.312.742-.696 0-.387-.334-.699-.742-.699-.412 0-.746.312-.746.699 0 .384.334.696.746.696zm3.246 3.033c0-.788.476-1.243 1.154-1.243.664 0 1.062.437 1.062 1.165V499h1.286v-3.473c.003-1.307-.742-2.053-1.868-2.053-.817 0-1.378.391-1.627.998h-.064v-.927h-1.228V499h1.285v-3.196z" fill="#F6C9A3" fill-opacity=".6"/><path fill="#FFF3E1" fill-opacity=".5" d="M332 302h200v60H332z"/><path d="M332 302h4v60h-4v-60z" fill="#FDDFC6" fill-opacity=".5"/><path opacity=".88" d="M346.697 336h1.56l1.752-6.124h.068l1.747 6.124h1.56l2.463-8.727h-1.701l-1.572 6.417h-.077l-1.683-6.417h-1.547l-1.679 6.413h-.081l-1.572-6.413h-1.701l2.463 8.727zm12.365.128c1.917 0 3.136-1.351 3.136-3.375 0-2.029-1.219-3.384-3.136-3.384-1.918 0-3.137 1.355-3.137 3.384 0 2.024 1.219 3.375 3.137 3.375zm.008-1.236c-1.061 0-1.581-.946-1.581-2.143 0-1.198.52-2.157 1.581-2.157 1.044 0 1.564.959 1.564 2.157 0 1.197-.52 2.143-1.564 2.143zm4.437 1.108h1.543v-3.848c0-.831.626-1.419 1.475-1.419.259 0 .583.047.715.089v-1.419a3.772 3.772 0 00-.554-.042c-.75 0-1.376.426-1.615 1.184h-.068v-1.09h-1.496V336zm4.758 0h1.543v-2.199l.562-.601 2.003 2.8h1.845l-2.684-3.72 2.535-2.825h-1.802l-2.353 2.629h-.106v-4.811h-1.543V336z" fill="#EFD1B8"/><path opacity=".88" d="M491.763 328.727h-1.254l-1.807 1.161v1.208l1.701-1.087h.042V336h1.318v-7.273zm1.846 7.273h4.986v-1.101h-3.168v-.05l1.254-1.274c1.413-1.357 1.804-2.017 1.804-2.838 0-1.218-.991-2.109-2.454-2.109-1.442 0-2.464.895-2.464 2.276h1.253c0-.742.469-1.207 1.193-1.207.693 0 1.208.422 1.208 1.108 0 .607-.37 1.04-1.087 1.768l-2.525 2.475V336zm8.899.138c1.755.004 2.802-1.381 2.802-3.767 0-2.372-1.054-3.743-2.802-3.743-1.747 0-2.798 1.367-2.802 3.743 0 2.383 1.048 3.767 2.802 3.767zm0-1.111c-.905 0-1.473-.909-1.47-2.656.004-1.733.568-2.646 1.47-2.646.906 0 1.471.913 1.474 2.646 0 1.747-.565 2.656-1.474 2.656zm6.477.973h1.285v-3.317c0-.671.448-1.125 1.002-1.125.543 0 .916.365.916.926V336h1.261v-3.402c0-.614.365-1.04.987-1.04.518 0 .93.305.93.98V336h1.289v-3.661c0-1.218-.703-1.865-1.704-1.865-.792 0-1.396.391-1.637.998h-.057c-.21-.618-.739-.998-1.474-.998-.732 0-1.278.377-1.506.998h-.064v-.927h-1.228V336zm8.974 0h1.286v-5.455h-1.286V336zm.647-6.229c.408 0 .742-.312.742-.696 0-.387-.334-.699-.742-.699-.412 0-.746.312-.746.699 0 .384.334.696.746.696zm3.246 3.033c0-.788.476-1.243 1.154-1.243.664 0 1.062.437 1.062 1.165V336h1.286v-3.473c.003-1.307-.742-2.053-1.868-2.053-.817 0-1.378.391-1.627.998h-.064v-.927h-1.228V336h1.285v-3.196z" fill="#F6C9A3" fill-opacity=".6"/><path fill="#FFF3E1" fill-opacity=".5" d="M552 242h200v60H552z"/><path d="M552 242h4v60h-4v-60z" fill="#FDDFC6" fill-opacity=".5"/><path opacity=".88" d="M566.697 276h1.56l1.752-6.124h.068l1.747 6.124h1.56l2.463-8.727h-1.701l-1.572 6.417h-.077l-1.683-6.417h-1.547l-1.679 6.413h-.081l-1.572-6.413h-1.701l2.463 8.727zm12.365.128c1.917 0 3.136-1.351 3.136-3.375 0-2.029-1.219-3.384-3.136-3.384-1.918 0-3.137 1.355-3.137 3.384 0 2.024 1.219 3.375 3.137 3.375zm.008-1.236c-1.061 0-1.581-.946-1.581-2.143 0-1.198.52-2.157 1.581-2.157 1.044 0 1.564.959 1.564 2.157 0 1.197-.52 2.143-1.564 2.143zm4.437 1.108h1.543v-3.848c0-.831.626-1.419 1.475-1.419.259 0 .583.047.715.089v-1.419a3.772 3.772 0 00-.554-.042c-.75 0-1.376.426-1.615 1.184h-.068v-1.09h-1.496V276zm4.758 0h1.543v-2.199l.562-.601 2.003 2.8h1.845l-2.684-3.72 2.535-2.825h-1.802l-2.353 2.629h-.106v-4.811h-1.543V276z" fill="#EFD1B8"/><path opacity=".88" d="M711.763 268.727h-1.254l-1.807 1.161v1.208l1.701-1.087h.042V276h1.318v-7.273zm1.846 7.273h4.986v-1.101h-3.168v-.05l1.254-1.274c1.413-1.357 1.804-2.017 1.804-2.838 0-1.218-.991-2.109-2.454-2.109-1.442 0-2.464.895-2.464 2.276h1.253c0-.742.469-1.207 1.193-1.207.693 0 1.208.422 1.208 1.108 0 .607-.37 1.04-1.087 1.768l-2.525 2.475V276zm8.899.138c1.755.004 2.802-1.381 2.802-3.767 0-2.372-1.054-3.743-2.802-3.743-1.747 0-2.798 1.367-2.802 3.743 0 2.383 1.048 3.767 2.802 3.767zm0-1.111c-.905 0-1.473-.909-1.47-2.656.004-1.733.568-2.646 1.47-2.646.906 0 1.471.913 1.474 2.646 0 1.747-.565 2.656-1.474 2.656zm6.477.973h1.285v-3.317c0-.671.448-1.125 1.002-1.125.543 0 .916.365.916.926V276h1.261v-3.402c0-.614.365-1.04.987-1.04.518 0 .93.305.93.98V276h1.289v-3.661c0-1.218-.703-1.865-1.704-1.865-.792 0-1.396.391-1.637.998h-.057c-.21-.618-.739-.998-1.474-.998-.732 0-1.278.377-1.506.998h-.064v-.927h-1.228V276zm8.974 0h1.286v-5.455h-1.286V276zm.647-6.229c.408 0 .742-.312.742-.696 0-.387-.334-.699-.742-.699-.412 0-.746.312-.746.699 0 .384.334.696.746.696zm3.246 3.033c0-.788.476-1.243 1.154-1.243.664 0 1.062.437 1.062 1.165V276h1.286v-3.473c.003-1.307-.742-2.053-1.868-2.053-.817 0-1.378.391-1.627.998h-.064v-.927h-1.228V276h1.285v-3.196z" fill="#F6C9A3" fill-opacity=".6"/><path fill="#CDF4D5" d="M332 268h200v30H332z"/><path d="M332 268h4v30h-4v-30z" fill="#96E6B9"/><path opacity=".88" d="M344.861 287h1.581v-3.707h3.626v-1.326h-3.626v-2.369h4.01v-1.325h-5.591V287zm6.869 0h1.543v-3.848c0-.831.626-1.419 1.474-1.419.26 0 .584.047.716.089v-1.419a3.783 3.783 0 00-.554-.042c-.75 0-1.376.426-1.615 1.184h-.068v-1.09h-1.496V287zm7.386.128c1.526 0 2.574-.746 2.847-1.884l-1.441-.162c-.208.554-.72.844-1.385.844-.997 0-1.657-.656-1.67-1.777h4.56v-.473c0-2.297-1.381-3.307-2.992-3.307-1.875 0-3.098 1.377-3.098 3.397 0 2.054 1.206 3.362 3.179 3.362zm-1.645-4.019c.047-.835.665-1.538 1.585-1.538.887 0 1.483.648 1.492 1.538h-3.077zm8.758 4.019c1.526 0 2.574-.746 2.847-1.884l-1.44-.162c-.209.554-.721.844-1.385.844-.997 0-1.658-.656-1.671-1.777h4.56v-.473c0-2.297-1.381-3.307-2.992-3.307-1.875 0-3.098 1.377-3.098 3.397 0 2.054 1.206 3.362 3.179 3.362zm-1.644-4.019c.046-.835.664-1.538 1.585-1.538.886 0 1.483.648 1.491 1.538h-3.076zm14.01-.924c-.213-1.108-1.1-1.816-2.634-1.816-1.576 0-2.65.776-2.646 1.986-.004.955.584 1.585 1.841 1.845l1.116.235c.601.132.882.375.882.745 0 .448-.485.784-1.218.784-.708 0-1.168-.306-1.3-.894l-1.504.144c.192 1.202 1.201 1.914 2.808 1.914 1.636 0 2.791-.848 2.795-2.088-.004-.933-.605-1.504-1.84-1.773l-1.117-.239c-.665-.149-.929-.379-.925-.758-.004-.443.486-.75 1.13-.75.711 0 1.086.388 1.206.818l1.406-.153zm2.955-3.912h-1.543V287h1.543v-8.727zm4.441 8.855c1.918 0 3.137-1.351 3.137-3.375 0-2.029-1.219-3.384-3.137-3.384-1.917 0-3.136 1.355-3.136 3.384 0 2.024 1.219 3.375 3.136 3.375zm.009-1.236c-1.061 0-1.581-.946-1.581-2.143 0-1.198.52-2.157 1.581-2.157 1.044 0 1.564.959 1.564 2.157 0 1.197-.52 2.143-1.564 2.143zm7.706-5.437h-1.292v-1.569h-1.542v1.569h-.929v1.193h.929v3.639c-.009 1.231.886 1.837 2.045 1.802.439-.012.742-.098.908-.153l-.26-1.206c-.085.021-.26.06-.452.06-.388 0-.699-.137-.699-.759v-3.383h1.292v-1.193z" fill="#378053" fill-opacity=".7"/><path opacity=".88" d="M495.917 287.099c1.555 0 2.688-.891 2.684-2.12.004-.909-.564-1.562-1.584-1.708v-.057c.789-.17 1.318-.756 1.314-1.573.004-1.108-.941-2.013-2.393-2.013-1.413 0-2.507.841-2.536 2.06h1.268c.021-.611.59-.991 1.261-.991.678 0 1.129.412 1.125 1.022.004.636-.522 1.059-1.274 1.059h-.643v1.015h.643c.919 0 1.466.462 1.463 1.119.003.643-.554 1.083-1.332 1.083-.732 0-1.296-.38-1.328-.973h-1.335c.035 1.229 1.132 2.077 2.667 2.077zm6.591.039c1.755.004 2.802-1.381 2.802-3.767 0-2.372-1.054-3.743-2.802-3.743-1.747 0-2.798 1.367-2.802 3.743 0 2.383 1.048 3.767 2.802 3.767zm0-1.111c-.905 0-1.473-.909-1.47-2.656.004-1.733.568-2.646 1.47-2.646.906 0 1.471.913 1.474 2.646 0 1.747-.565 2.656-1.474 2.656zm6.477.973h1.285v-3.317c0-.671.448-1.125 1.002-1.125.543 0 .916.365.916.926V287h1.261v-3.402c0-.614.365-1.04.987-1.04.518 0 .93.305.93.98V287h1.289v-3.661c0-1.218-.703-1.865-1.704-1.865-.792 0-1.396.391-1.637.998h-.057c-.21-.618-.739-.998-1.474-.998-.732 0-1.278.377-1.506.998h-.064v-.927h-1.228V287zm8.974 0h1.286v-5.455h-1.286V287zm.647-6.229c.408 0 .742-.312.742-.696 0-.387-.334-.699-.742-.699-.412 0-.746.312-.746.699 0 .384.334.696.746.696zm3.246 3.033c0-.788.476-1.243 1.154-1.243.664 0 1.062.437 1.062 1.165V287h1.286v-3.473c.003-1.307-.742-2.053-1.868-2.053-.817 0-1.378.391-1.627.998h-.064v-.927h-1.228V287h1.285v-3.196z" fill="#467D6E" fill-opacity=".5"/><path fill="#CDF4D5" d="M552 178h200v60H552z"/><path d="M552 178h4v60h-4v-60z" fill="#96E6B9"/><path opacity=".88" d="M564.861 212h1.581v-3.707h3.626v-1.326h-3.626v-2.369h4.01v-1.325h-5.591V212zm6.869 0h1.543v-3.848c0-.831.626-1.419 1.474-1.419.26 0 .584.047.716.089v-1.419a3.783 3.783 0 00-.554-.042c-.75 0-1.376.426-1.615 1.184h-.068v-1.09h-1.496V212zm7.386.128c1.526 0 2.574-.746 2.847-1.884l-1.441-.162c-.208.554-.72.844-1.385.844-.997 0-1.657-.656-1.67-1.777h4.56v-.473c0-2.297-1.381-3.307-2.992-3.307-1.875 0-3.098 1.377-3.098 3.397 0 2.054 1.206 3.362 3.179 3.362zm-1.645-4.019c.047-.835.665-1.538 1.585-1.538.887 0 1.483.648 1.492 1.538h-3.077zm8.758 4.019c1.526 0 2.574-.746 2.847-1.884l-1.44-.162c-.209.554-.721.844-1.385.844-.997 0-1.658-.656-1.671-1.777h4.56v-.473c0-2.297-1.381-3.307-2.992-3.307-1.875 0-3.098 1.377-3.098 3.397 0 2.054 1.206 3.362 3.179 3.362zm-1.644-4.019c.046-.835.664-1.538 1.585-1.538.886 0 1.483.648 1.491 1.538h-3.076zm14.01-.924c-.213-1.108-1.1-1.816-2.634-1.816-1.576 0-2.65.776-2.646 1.986-.004.955.584 1.585 1.841 1.845l1.116.235c.601.132.882.375.882.745 0 .448-.485.784-1.218.784-.708 0-1.168-.306-1.3-.894l-1.504.144c.192 1.202 1.201 1.914 2.808 1.914 1.636 0 2.791-.848 2.795-2.088-.004-.933-.605-1.504-1.84-1.773l-1.117-.239c-.665-.149-.929-.379-.925-.758-.004-.443.486-.75 1.13-.75.711 0 1.086.388 1.206.818l1.406-.153zm2.955-3.912h-1.543V212h1.543v-8.727zm4.441 8.855c1.918 0 3.137-1.351 3.137-3.375 0-2.029-1.219-3.384-3.137-3.384-1.917 0-3.136 1.355-3.136 3.384 0 2.024 1.219 3.375 3.136 3.375zm.009-1.236c-1.061 0-1.581-.946-1.581-2.143 0-1.198.52-2.157 1.581-2.157 1.044 0 1.564.959 1.564 2.157 0 1.197-.52 2.143-1.564 2.143zm7.706-5.437h-1.292v-1.569h-1.542v1.569h-.929v1.193h.929v3.639c-.009 1.231.886 1.837 2.045 1.802.439-.012.742-.098.908-.153l-.26-1.206c-.085.021-.26.06-.452.06-.388 0-.699-.137-.699-.759v-3.383h1.292v-1.193z" fill="#378053" fill-opacity=".7"/><path opacity=".88" d="M715.999 212.099c1.57.011 2.624-1.068 2.621-2.507.003-1.374-.977-2.368-2.252-2.368-.781 0-1.47.38-1.818 1.005h-.049c.003-1.531.564-2.461 1.573-2.461.625 0 1.047.362 1.182.92h1.296c-.156-1.176-1.104-2.06-2.478-2.06-1.747 0-2.852 1.456-2.852 3.942-.003 2.667 1.382 3.522 2.777 3.529zm-.007-1.065c-.778 0-1.346-.643-1.349-1.403.007-.763.596-1.402 1.367-1.402.77 0 1.335.61 1.331 1.392.004.795-.578 1.413-1.349 1.413zm6.516 1.104c1.755.004 2.802-1.381 2.802-3.767 0-2.372-1.054-3.743-2.802-3.743-1.747 0-2.798 1.367-2.802 3.743 0 2.383 1.048 3.767 2.802 3.767zm0-1.111c-.905 0-1.473-.909-1.47-2.656.004-1.733.568-2.646 1.47-2.646.906 0 1.471.913 1.474 2.646 0 1.747-.565 2.656-1.474 2.656zm6.477.973h1.285v-3.317c0-.671.448-1.125 1.002-1.125.543 0 .916.365.916.926V212h1.261v-3.402c0-.614.365-1.04.987-1.04.518 0 .93.305.93.98V212h1.289v-3.661c0-1.218-.703-1.865-1.704-1.865-.792 0-1.396.391-1.637.998h-.057c-.21-.618-.739-.998-1.474-.998-.732 0-1.278.377-1.506.998h-.064v-.927h-1.228V212zm8.974 0h1.286v-5.455h-1.286V212zm.647-6.229c.408 0 .742-.312.742-.696 0-.387-.334-.699-.742-.699-.412 0-.746.312-.746.699 0 .384.334.696.746.696zm3.246 3.033c0-.788.476-1.243 1.154-1.243.664 0 1.062.437 1.062 1.165V212h1.286v-3.473c.003-1.307-.742-2.053-1.868-2.053-.817 0-1.378.391-1.627.998h-.064v-.927h-1.228V212h1.285v-3.196z" fill="#467D6E" fill-opacity=".5"/><path fill="#CDF4D5" d="M552 110h200v30H552z"/><path d="M552 110h4v30h-4v-30z" fill="#96E6B9"/><path opacity=".88" d="M564.861 129h1.581v-3.707h3.626v-1.326h-3.626v-2.369h4.01v-1.325h-5.591V129zm6.869 0h1.543v-3.848c0-.831.626-1.419 1.474-1.419.26 0 .584.047.716.089v-1.419a3.783 3.783 0 00-.554-.042c-.75 0-1.376.426-1.615 1.184h-.068v-1.09h-1.496V129zm7.386.128c1.526 0 2.574-.746 2.847-1.884l-1.441-.162c-.208.554-.72.844-1.385.844-.997 0-1.657-.656-1.67-1.777h4.56v-.473c0-2.297-1.381-3.307-2.992-3.307-1.875 0-3.098 1.377-3.098 3.397 0 2.054 1.206 3.362 3.179 3.362zm-1.645-4.019c.047-.835.665-1.538 1.585-1.538.887 0 1.483.648 1.492 1.538h-3.077zm8.758 4.019c1.526 0 2.574-.746 2.847-1.884l-1.44-.162c-.209.554-.721.844-1.385.844-.997 0-1.658-.656-1.671-1.777h4.56v-.473c0-2.297-1.381-3.307-2.992-3.307-1.875 0-3.098 1.377-3.098 3.397 0 2.054 1.206 3.362 3.179 3.362zm-1.644-4.019c.046-.835.664-1.538 1.585-1.538.886 0 1.483.648 1.491 1.538h-3.076zm14.01-.924c-.213-1.108-1.1-1.816-2.634-1.816-1.576 0-2.65.776-2.646 1.986-.004.955.584 1.585 1.841 1.845l1.116.235c.601.132.882.375.882.745 0 .448-.485.784-1.218.784-.708 0-1.168-.306-1.3-.894l-1.504.144c.192 1.202 1.201 1.914 2.808 1.914 1.636 0 2.791-.848 2.795-2.088-.004-.933-.605-1.504-1.84-1.773l-1.117-.239c-.665-.149-.929-.379-.925-.758-.004-.443.486-.75 1.13-.75.711 0 1.086.388 1.206.818l1.406-.153zm2.955-3.912h-1.543V129h1.543v-8.727zm4.441 8.855c1.918 0 3.137-1.351 3.137-3.375 0-2.029-1.219-3.384-3.137-3.384-1.917 0-3.136 1.355-3.136 3.384 0 2.024 1.219 3.375 3.136 3.375zm.009-1.236c-1.061 0-1.581-.946-1.581-2.143 0-1.198.52-2.157 1.581-2.157 1.044 0 1.564.959 1.564 2.157 0 1.197-.52 2.143-1.564 2.143zm7.706-5.437h-1.292v-1.569h-1.542v1.569h-.929v1.193h.929v3.639c-.009 1.231.886 1.837 2.045 1.802.439-.012.742-.098.908-.153l-.26-1.206c-.085.021-.26.06-.452.06-.388 0-.699-.137-.699-.759v-3.383h1.292v-1.193z" fill="#378053" fill-opacity=".7"/><path opacity=".88" d="M715.917 129.099c1.555 0 2.688-.891 2.684-2.12.004-.909-.564-1.562-1.584-1.708v-.057c.789-.17 1.318-.756 1.314-1.573.004-1.108-.941-2.013-2.393-2.013-1.413 0-2.507.841-2.536 2.06h1.268c.021-.611.59-.991 1.261-.991.678 0 1.129.412 1.125 1.022.004.636-.522 1.059-1.274 1.059h-.643v1.015h.643c.919 0 1.466.462 1.463 1.119.003.643-.554 1.083-1.332 1.083-.732 0-1.296-.38-1.328-.973h-1.335c.035 1.229 1.132 2.077 2.667 2.077zm6.591.039c1.755.004 2.802-1.381 2.802-3.767 0-2.372-1.054-3.743-2.802-3.743-1.747 0-2.798 1.367-2.802 3.743 0 2.383 1.048 3.767 2.802 3.767zm0-1.111c-.905 0-1.473-.909-1.47-2.656.004-1.733.568-2.646 1.47-2.646.906 0 1.471.913 1.474 2.646 0 1.747-.565 2.656-1.474 2.656zm6.477.973h1.285v-3.317c0-.671.448-1.125 1.002-1.125.543 0 .916.365.916.926V129h1.261v-3.402c0-.614.365-1.04.987-1.04.518 0 .93.305.93.98V129h1.289v-3.661c0-1.218-.703-1.865-1.704-1.865-.792 0-1.396.391-1.637.998h-.057c-.21-.618-.739-.998-1.474-.998-.732 0-1.278.377-1.506.998h-.064v-.927h-1.228V129zm8.974 0h1.286v-5.455h-1.286V129zm.647-6.229c.408 0 .742-.312.742-.696 0-.387-.334-.699-.742-.699-.412 0-.746.312-.746.699 0 .384.334.696.746.696zm3.246 3.033c0-.788.476-1.243 1.154-1.243.664 0 1.062.437 1.062 1.165V129h1.286v-3.473c.003-1.307-.742-2.053-1.868-2.053-.817 0-1.378.391-1.627.998h-.064v-.927h-1.228V129h1.285v-3.196z" fill="#467D6E" fill-opacity=".5"/><path d="M332 366h200v15H332v-15z" fill="#CDF4D5"/><path d="M332 366h4v15h-4v-15z" fill="#96E6B9"/><path opacity=".88" d="M344.861 377.5h1.581v-3.707h3.626v-1.326h-3.626v-2.369h4.01v-1.325h-5.591v8.727zm6.869 0h1.543v-3.848c0-.831.626-1.419 1.474-1.419.26 0 .584.047.716.089v-1.419a3.783 3.783 0 00-.554-.042c-.75 0-1.376.426-1.615 1.184h-.068v-1.09h-1.496v6.545zm7.386.128c1.526 0 2.574-.746 2.847-1.884l-1.441-.162c-.208.554-.72.844-1.385.844-.997 0-1.657-.656-1.67-1.777h4.56v-.473c0-2.297-1.381-3.307-2.992-3.307-1.875 0-3.098 1.377-3.098 3.397 0 2.054 1.206 3.362 3.179 3.362zm-1.645-4.019c.047-.835.665-1.538 1.585-1.538.887 0 1.483.648 1.492 1.538h-3.077zm8.758 4.019c1.526 0 2.574-.746 2.847-1.884l-1.44-.162c-.209.554-.721.844-1.385.844-.997 0-1.658-.656-1.671-1.777h4.56v-.473c0-2.297-1.381-3.307-2.992-3.307-1.875 0-3.098 1.377-3.098 3.397 0 2.054 1.206 3.362 3.179 3.362zm-1.644-4.019c.046-.835.664-1.538 1.585-1.538.886 0 1.483.648 1.491 1.538h-3.076zm14.01-.924c-.213-1.108-1.1-1.816-2.634-1.816-1.576 0-2.65.776-2.646 1.986-.004.955.584 1.585 1.841 1.845l1.116.235c.601.132.882.375.882.745 0 .448-.485.784-1.218.784-.708 0-1.168-.306-1.3-.894l-1.504.144c.192 1.202 1.201 1.914 2.808 1.914 1.636 0 2.791-.848 2.795-2.088-.004-.933-.605-1.504-1.84-1.773l-1.117-.239c-.665-.149-.929-.379-.925-.758-.004-.443.486-.75 1.13-.75.711 0 1.086.388 1.206.818l1.406-.153zm2.955-3.912h-1.543v8.727h1.543v-8.727zm4.441 8.855c1.918 0 3.137-1.351 3.137-3.375 0-2.029-1.219-3.384-3.137-3.384-1.917 0-3.136 1.355-3.136 3.384 0 2.024 1.219 3.375 3.136 3.375zm.009-1.236c-1.061 0-1.581-.946-1.581-2.143 0-1.198.52-2.157 1.581-2.157 1.044 0 1.564.959 1.564 2.157 0 1.197-.52 2.143-1.564 2.143zm7.706-5.437h-1.292v-1.569h-1.542v1.569h-.929v1.193h.929v3.639c-.009 1.231.886 1.837 2.045 1.802.439-.012.742-.098.908-.153l-.26-1.206c-.085.021-.26.06-.452.06-.388 0-.699-.137-.699-.759v-3.383h1.292v-1.193z" fill="#378053" fill-opacity=".7"/><path opacity=".88" d="M498.315 370.227h-1.253l-1.808 1.161v1.208l1.701-1.087h.043v5.991h1.317v-7.273zm4.375 7.372c1.538 0 2.61-1.044 2.61-2.489 0-1.399-.973-2.408-2.294-2.408-.589 0-1.111.235-1.381.554h-.043l.21-1.928h3.128v-1.101h-4.218l-.38 3.75 1.189.196c.245-.27.707-.451 1.144-.448.799.004 1.374.593 1.371 1.417.003.813-.558 1.392-1.336 1.392-.657 0-1.186-.415-1.232-1.012h-1.278c.035 1.207 1.09 2.077 2.51 2.077zm6.295-.099h1.285v-3.317c0-.671.448-1.125 1.002-1.125.543 0 .916.365.916.926v3.516h1.261v-3.402c0-.614.365-1.04.987-1.04.518 0 .93.305.93.98v3.462h1.289v-3.661c0-1.218-.703-1.865-1.704-1.865-.792 0-1.396.391-1.637.998h-.057c-.21-.618-.739-.998-1.474-.998-.732 0-1.278.377-1.506.998h-.064v-.927h-1.228v5.455zm8.974 0h1.286v-5.455h-1.286v5.455zm.647-6.229c.408 0 .742-.312.742-.696 0-.387-.334-.699-.742-.699-.412 0-.746.312-.746.699 0 .384.334.696.746.696zm3.246 3.033c0-.788.476-1.243 1.154-1.243.664 0 1.062.437 1.062 1.165v3.274h1.286v-3.473c.003-1.307-.742-2.053-1.868-2.053-.817 0-1.378.391-1.627.998h-.064v-.927h-1.228v5.455h1.285v-3.196z" fill="#467D6E" fill-opacity=".5"/><path d="M552 340h200v15H552v-15z" fill="#CDF4D5"/><path d="M552 340h4v15h-4v-15z" fill="#96E6B9"/><path opacity=".88" d="M564.861 351.5h1.581v-3.707h3.626v-1.326h-3.626v-2.369h4.01v-1.325h-5.591v8.727zm6.869 0h1.543v-3.848c0-.831.626-1.419 1.474-1.419.26 0 .584.047.716.089v-1.419a3.783 3.783 0 00-.554-.042c-.75 0-1.376.426-1.615 1.184h-.068v-1.09h-1.496v6.545zm7.386.128c1.526 0 2.574-.746 2.847-1.884l-1.441-.162c-.208.554-.72.844-1.385.844-.997 0-1.657-.656-1.67-1.777h4.56v-.473c0-2.297-1.381-3.307-2.992-3.307-1.875 0-3.098 1.377-3.098 3.397 0 2.054 1.206 3.362 3.179 3.362zm-1.645-4.019c.047-.835.665-1.538 1.585-1.538.887 0 1.483.648 1.492 1.538h-3.077zm8.758 4.019c1.526 0 2.574-.746 2.847-1.884l-1.44-.162c-.209.554-.721.844-1.385.844-.997 0-1.658-.656-1.671-1.777h4.56v-.473c0-2.297-1.381-3.307-2.992-3.307-1.875 0-3.098 1.377-3.098 3.397 0 2.054 1.206 3.362 3.179 3.362zm-1.644-4.019c.046-.835.664-1.538 1.585-1.538.886 0 1.483.648 1.491 1.538h-3.076zm14.01-.924c-.213-1.108-1.1-1.816-2.634-1.816-1.576 0-2.65.776-2.646 1.986-.004.955.584 1.585 1.841 1.845l1.116.235c.601.132.882.375.882.745 0 .448-.485.784-1.218.784-.708 0-1.168-.306-1.3-.894l-1.504.144c.192 1.202 1.201 1.914 2.808 1.914 1.636 0 2.791-.848 2.795-2.088-.004-.933-.605-1.504-1.84-1.773l-1.117-.239c-.665-.149-.929-.379-.925-.758-.004-.443.486-.75 1.13-.75.711 0 1.086.388 1.206.818l1.406-.153zm2.955-3.912h-1.543v8.727h1.543v-8.727zm4.441 8.855c1.918 0 3.137-1.351 3.137-3.375 0-2.029-1.219-3.384-3.137-3.384-1.917 0-3.136 1.355-3.136 3.384 0 2.024 1.219 3.375 3.136 3.375zm.009-1.236c-1.061 0-1.581-.946-1.581-2.143 0-1.198.52-2.157 1.581-2.157 1.044 0 1.564.959 1.564 2.157 0 1.197-.52 2.143-1.564 2.143zm7.706-5.437h-1.292v-1.569h-1.542v1.569h-.929v1.193h.929v3.639c-.009 1.231.886 1.837 2.045 1.802.439-.012.742-.098.908-.153l-.26-1.206c-.085.021-.26.06-.452.06-.388 0-.699-.137-.699-.759v-3.383h1.292v-1.193z" fill="#378053" fill-opacity=".7"/><path opacity=".88" d="M718.315 344.227h-1.253l-1.808 1.161v1.208l1.701-1.087h.043v5.991h1.317v-7.273zm4.375 7.372c1.538 0 2.61-1.044 2.61-2.489 0-1.399-.973-2.408-2.294-2.408-.589 0-1.111.235-1.381.554h-.043l.21-1.928h3.128v-1.101h-4.218l-.38 3.75 1.189.196c.245-.27.707-.451 1.144-.448.799.004 1.374.593 1.371 1.417.003.813-.558 1.392-1.336 1.392-.657 0-1.186-.415-1.232-1.012h-1.278c.035 1.207 1.09 2.077 2.51 2.077zm6.295-.099h1.285v-3.317c0-.671.448-1.125 1.002-1.125.543 0 .916.365.916.926v3.516h1.261v-3.402c0-.614.365-1.04.987-1.04.518 0 .93.305.93.98v3.462h1.289v-3.661c0-1.218-.703-1.865-1.704-1.865-.792 0-1.396.391-1.637.998h-.057c-.21-.618-.739-.998-1.474-.998-.732 0-1.278.377-1.506.998h-.064v-.927h-1.228v5.455zm8.974 0h1.286v-5.455h-1.286v5.455zm.647-6.229c.408 0 .742-.312.742-.696 0-.387-.334-.699-.742-.699-.412 0-.746.312-.746.699 0 .384.334.696.746.696zm3.246 3.033c0-.788.476-1.243 1.154-1.243.664 0 1.062.437 1.062 1.165v3.274h1.286v-3.473c.003-1.307-.742-2.053-1.868-2.053-.817 0-1.378.391-1.627.998h-.064v-.927h-1.228v5.455h1.285v-3.196z" fill="#467D6E" fill-opacity=".5"/><path d="M552 359h200v15H552v-15z" fill="#CDF4D5"/><path d="M552 359h4v15h-4v-15z" fill="#96E6B9"/><path opacity=".88" d="M564.861 370.5h1.581v-3.707h3.626v-1.326h-3.626v-2.369h4.01v-1.325h-5.591v8.727zm6.869 0h1.543v-3.848c0-.831.626-1.419 1.474-1.419.26 0 .584.047.716.089v-1.419a3.783 3.783 0 00-.554-.042c-.75 0-1.376.426-1.615 1.184h-.068v-1.09h-1.496v6.545zm7.386.128c1.526 0 2.574-.746 2.847-1.884l-1.441-.162c-.208.554-.72.844-1.385.844-.997 0-1.657-.656-1.67-1.777h4.56v-.473c0-2.297-1.381-3.307-2.992-3.307-1.875 0-3.098 1.377-3.098 3.397 0 2.054 1.206 3.362 3.179 3.362zm-1.645-4.019c.047-.835.665-1.538 1.585-1.538.887 0 1.483.648 1.492 1.538h-3.077zm8.758 4.019c1.526 0 2.574-.746 2.847-1.884l-1.44-.162c-.209.554-.721.844-1.385.844-.997 0-1.658-.656-1.671-1.777h4.56v-.473c0-2.297-1.381-3.307-2.992-3.307-1.875 0-3.098 1.377-3.098 3.397 0 2.054 1.206 3.362 3.179 3.362zm-1.644-4.019c.046-.835.664-1.538 1.585-1.538.886 0 1.483.648 1.491 1.538h-3.076zm14.01-.924c-.213-1.108-1.1-1.816-2.634-1.816-1.576 0-2.65.776-2.646 1.986-.004.955.584 1.585 1.841 1.845l1.116.235c.601.132.882.375.882.745 0 .448-.485.784-1.218.784-.708 0-1.168-.306-1.3-.894l-1.504.144c.192 1.202 1.201 1.914 2.808 1.914 1.636 0 2.791-.848 2.795-2.088-.004-.933-.605-1.504-1.84-1.773l-1.117-.239c-.665-.149-.929-.379-.925-.758-.004-.443.486-.75 1.13-.75.711 0 1.086.388 1.206.818l1.406-.153zm2.955-3.912h-1.543v8.727h1.543v-8.727zm4.441 8.855c1.918 0 3.137-1.351 3.137-3.375 0-2.029-1.219-3.384-3.137-3.384-1.917 0-3.136 1.355-3.136 3.384 0 2.024 1.219 3.375 3.136 3.375zm.009-1.236c-1.061 0-1.581-.946-1.581-2.143 0-1.198.52-2.157 1.581-2.157 1.044 0 1.564.959 1.564 2.157 0 1.197-.52 2.143-1.564 2.143zm7.706-5.437h-1.292v-1.569h-1.542v1.569h-.929v1.193h.929v3.639c-.009 1.231.886 1.837 2.045 1.802.439-.012.742-.098.908-.153l-.26-1.206c-.085.021-.26.06-.452.06-.388 0-.699-.137-.699-.759v-3.383h1.292v-1.193z" fill="#378053" fill-opacity=".7"/><path opacity=".88" d="M718.315 363.227h-1.253l-1.808 1.161v1.208l1.701-1.087h.043v5.991h1.317v-7.273zm4.375 7.372c1.538 0 2.61-1.044 2.61-2.489 0-1.399-.973-2.408-2.294-2.408-.589 0-1.111.235-1.381.554h-.043l.21-1.928h3.128v-1.101h-4.218l-.38 3.75 1.189.196c.245-.27.707-.451 1.144-.448.799.004 1.374.593 1.371 1.417.003.813-.558 1.392-1.336 1.392-.657 0-1.186-.415-1.232-1.012h-1.278c.035 1.207 1.09 2.077 2.51 2.077zm6.295-.099h1.285v-3.317c0-.671.448-1.125 1.002-1.125.543 0 .916.365.916.926v3.516h1.261v-3.402c0-.614.365-1.04.987-1.04.518 0 .93.305.93.98v3.462h1.289v-3.661c0-1.218-.703-1.865-1.704-1.865-.792 0-1.396.391-1.637.998h-.057c-.21-.618-.739-.998-1.474-.998-.732 0-1.278.377-1.506.998h-.064v-.927h-1.228v5.455zm8.974 0h1.286v-5.455h-1.286v5.455zm.647-6.229c.408 0 .742-.312.742-.696 0-.387-.334-.699-.742-.699-.412 0-.746.312-.746.699 0 .384.334.696.746.696zm3.246 3.033c0-.788.476-1.243 1.154-1.243.664 0 1.062.437 1.062 1.165v3.274h1.286v-3.473c.003-1.307-.742-2.053-1.868-2.053-.817 0-1.378.391-1.627.998h-.064v-.927h-1.228v5.455h1.285v-3.196z" fill="#467D6E" fill-opacity=".5"/><path d="M552 378h200v15H552v-15z" fill="#CDF4D5"/><path d="M552 378h4v15h-4v-15z" fill="#96E6B9"/><path opacity=".88" d="M564.861 389.5h1.581v-3.707h3.626v-1.326h-3.626v-2.369h4.01v-1.325h-5.591v8.727zm6.869 0h1.543v-3.848c0-.831.626-1.419 1.474-1.419.26 0 .584.047.716.089v-1.419a3.783 3.783 0 00-.554-.042c-.75 0-1.376.426-1.615 1.184h-.068v-1.09h-1.496v6.545zm7.386.128c1.526 0 2.574-.746 2.847-1.884l-1.441-.162c-.208.554-.72.844-1.385.844-.997 0-1.657-.656-1.67-1.777h4.56v-.473c0-2.297-1.381-3.307-2.992-3.307-1.875 0-3.098 1.377-3.098 3.397 0 2.054 1.206 3.362 3.179 3.362zm-1.645-4.019c.047-.835.665-1.538 1.585-1.538.887 0 1.483.648 1.492 1.538h-3.077zm8.758 4.019c1.526 0 2.574-.746 2.847-1.884l-1.44-.162c-.209.554-.721.844-1.385.844-.997 0-1.658-.656-1.671-1.777h4.56v-.473c0-2.297-1.381-3.307-2.992-3.307-1.875 0-3.098 1.377-3.098 3.397 0 2.054 1.206 3.362 3.179 3.362zm-1.644-4.019c.046-.835.664-1.538 1.585-1.538.886 0 1.483.648 1.491 1.538h-3.076zm14.01-.924c-.213-1.108-1.1-1.816-2.634-1.816-1.576 0-2.65.776-2.646 1.986-.004.955.584 1.585 1.841 1.845l1.116.235c.601.132.882.375.882.745 0 .448-.485.784-1.218.784-.708 0-1.168-.306-1.3-.894l-1.504.144c.192 1.202 1.201 1.914 2.808 1.914 1.636 0 2.791-.848 2.795-2.088-.004-.933-.605-1.504-1.84-1.773l-1.117-.239c-.665-.149-.929-.379-.925-.758-.004-.443.486-.75 1.13-.75.711 0 1.086.388 1.206.818l1.406-.153zm2.955-3.912h-1.543v8.727h1.543v-8.727zm4.441 8.855c1.918 0 3.137-1.351 3.137-3.375 0-2.029-1.219-3.384-3.137-3.384-1.917 0-3.136 1.355-3.136 3.384 0 2.024 1.219 3.375 3.136 3.375zm.009-1.236c-1.061 0-1.581-.946-1.581-2.143 0-1.198.52-2.157 1.581-2.157 1.044 0 1.564.959 1.564 2.157 0 1.197-.52 2.143-1.564 2.143zm7.706-5.437h-1.292v-1.569h-1.542v1.569h-.929v1.193h.929v3.639c-.009 1.231.886 1.837 2.045 1.802.439-.012.742-.098.908-.153l-.26-1.206c-.085.021-.26.06-.452.06-.388 0-.699-.137-.699-.759v-3.383h1.292v-1.193z" fill="#378053" fill-opacity=".7"/><path opacity=".88" d="M718.315 382.227h-1.253l-1.808 1.161v1.208l1.701-1.087h.043v5.991h1.317v-7.273zm4.375 7.372c1.538 0 2.61-1.044 2.61-2.489 0-1.399-.973-2.408-2.294-2.408-.589 0-1.111.235-1.381.554h-.043l.21-1.928h3.128v-1.101h-4.218l-.38 3.75 1.189.196c.245-.27.707-.451 1.144-.448.799.004 1.374.593 1.371 1.417.003.813-.558 1.392-1.336 1.392-.657 0-1.186-.415-1.232-1.012h-1.278c.035 1.207 1.09 2.077 2.51 2.077zm6.295-.099h1.285v-3.317c0-.671.448-1.125 1.002-1.125.543 0 .916.365.916.926v3.516h1.261v-3.402c0-.614.365-1.04.987-1.04.518 0 .93.305.93.98v3.462h1.289v-3.661c0-1.218-.703-1.865-1.704-1.865-.792 0-1.396.391-1.637.998h-.057c-.21-.618-.739-.998-1.474-.998-.732 0-1.278.377-1.506.998h-.064v-.927h-1.228v5.455zm8.974 0h1.286v-5.455h-1.286v5.455zm.647-6.229c.408 0 .742-.312.742-.696 0-.387-.334-.699-.742-.699-.412 0-.746.312-.746.699 0 .384.334.696.746.696zm3.246 3.033c0-.788.476-1.243 1.154-1.243.664 0 1.062.437 1.062 1.165v3.274h1.286v-3.473c.003-1.307-.742-2.053-1.868-2.053-.817 0-1.378.391-1.627.998h-.064v-.927h-1.228v5.455h1.285v-3.196z" fill="#467D6E" fill-opacity=".5"/><path fill="#E6E9FF" fill-opacity=".5" d="M332 234h200v30H332z"/><path d="M332 234h4v30h-4v-30z" fill="#C1C8FF" fill-opacity=".5"/><path opacity=".88" d="M344.861 253h1.581v-2.949h1.67c2.016 0 3.098-1.21 3.098-2.889 0-1.666-1.069-2.889-3.076-2.889h-3.273V253zm1.581-4.249v-3.157h1.449c1.184 0 1.708.639 1.708 1.568s-.524 1.589-1.7 1.589h-1.457zm8.877 4.377c1.526 0 2.574-.746 2.847-1.884l-1.441-.162c-.208.554-.72.844-1.384.844-.998 0-1.658-.656-1.671-1.777h4.56v-.473c0-2.297-1.381-3.307-2.992-3.307-1.875 0-3.098 1.377-3.098 3.397 0 2.054 1.206 3.362 3.179 3.362zm-1.645-4.019c.047-.835.665-1.538 1.586-1.538.886 0 1.483.648 1.491 1.538h-3.077zm5.861 3.891h1.542v-3.848c0-.831.627-1.419 1.475-1.419.26 0 .584.047.716.089v-1.419a3.794 3.794 0 00-.554-.042c-.75 0-1.377.426-1.615 1.184h-.068v-1.09h-1.496V253zm9.931-4.815c-.213-1.108-1.1-1.816-2.634-1.816-1.576 0-2.65.776-2.646 1.986-.004.955.584 1.585 1.841 1.845l1.116.235c.601.132.883.375.883.745 0 .448-.486.784-1.219.784-.708 0-1.168-.306-1.3-.894l-1.504.144c.192 1.202 1.202 1.914 2.808 1.914 1.636 0 2.791-.848 2.796-2.088-.005-.933-.606-1.504-1.841-1.773l-1.117-.239c-.665-.149-.929-.379-.925-.758-.004-.443.486-.75 1.13-.75.711 0 1.086.388 1.206.818l1.406-.153zm4.268 4.943c1.917 0 3.136-1.351 3.136-3.375 0-2.029-1.219-3.384-3.136-3.384-1.918 0-3.137 1.355-3.137 3.384 0 2.024 1.219 3.375 3.137 3.375zm.008-1.236c-1.061 0-1.581-.946-1.581-2.143 0-1.198.52-2.157 1.581-2.157 1.044 0 1.564.959 1.564 2.157 0 1.197-.52 2.143-1.564 2.143zm5.98-2.727c0-.946.571-1.492 1.385-1.492.797 0 1.274.524 1.274 1.398V253h1.543v-4.168c.004-1.568-.891-2.463-2.242-2.463-.98 0-1.653.469-1.952 1.198h-.076v-1.112h-1.475V253h1.543v-3.835zm7.653 3.967c1.027 0 1.641-.481 1.922-1.031h.051V253h1.483v-4.381c0-1.73-1.41-2.25-2.659-2.25-1.376 0-2.433.614-2.774 1.807l1.44.205c.154-.448.588-.831 1.343-.831.716 0 1.108.366 1.108 1.01v.025c0 .443-.465.465-1.62.588-1.269.137-2.484.516-2.484 1.99 0 1.287.942 1.969 2.19 1.969zm.401-1.133c-.644 0-1.104-.294-1.104-.861 0-.593.516-.84 1.206-.938.405-.055 1.215-.157 1.415-.319v.771c0 .729-.588 1.347-1.517 1.347zm6.149-7.726h-1.543V253h1.543v-8.727z" fill="#C0C6FC"/><path opacity=".88" d="M495.917 253.099c1.555 0 2.688-.891 2.684-2.12.004-.909-.564-1.562-1.584-1.708v-.057c.789-.17 1.318-.756 1.314-1.573.004-1.108-.941-2.013-2.393-2.013-1.413 0-2.507.841-2.536 2.06h1.268c.021-.611.59-.991 1.261-.991.678 0 1.129.412 1.125 1.022.004.636-.522 1.059-1.274 1.059h-.643v1.015h.643c.919 0 1.466.462 1.463 1.119.003.643-.554 1.083-1.332 1.083-.732 0-1.296-.38-1.328-.973h-1.335c.035 1.229 1.132 2.077 2.667 2.077zm6.591.039c1.755.004 2.802-1.381 2.802-3.767 0-2.372-1.054-3.743-2.802-3.743-1.747 0-2.798 1.367-2.802 3.743 0 2.383 1.048 3.767 2.802 3.767zm0-1.111c-.905 0-1.473-.909-1.47-2.656.004-1.733.568-2.646 1.47-2.646.906 0 1.471.913 1.474 2.646 0 1.747-.565 2.656-1.474 2.656zm6.477.973h1.285v-3.317c0-.671.448-1.125 1.002-1.125.543 0 .916.365.916.926V253h1.261v-3.402c0-.614.365-1.04.987-1.04.518 0 .93.305.93.98V253h1.289v-3.661c0-1.218-.703-1.865-1.704-1.865-.792 0-1.396.391-1.637.998h-.057c-.21-.618-.739-.998-1.474-.998-.732 0-1.278.377-1.506.998h-.064v-.927h-1.228V253zm8.974 0h1.286v-5.455h-1.286V253zm.647-6.229c.408 0 .742-.312.742-.696 0-.387-.334-.699-.742-.699-.412 0-.746.312-.746.699 0 .384.334.696.746.696zm3.246 3.033c0-.788.476-1.243 1.154-1.243.664 0 1.062.437 1.062 1.165V253h1.286v-3.473c.003-1.307-.742-2.053-1.868-2.053-.817 0-1.378.391-1.627.998h-.064v-.927h-1.228V253h1.285v-3.196z" fill="#C8CDFF"/><path fill="#E6E9FF" fill-opacity=".5" d="M552 144h200v30H552z"/><path d="M552 144h4v30h-4v-30z" fill="#C1C8FF" fill-opacity=".5"/><path opacity=".88" d="M564.861 163h1.581v-2.949h1.67c2.016 0 3.098-1.21 3.098-2.889 0-1.666-1.069-2.889-3.076-2.889h-3.273V163zm1.581-4.249v-3.157h1.449c1.184 0 1.708.639 1.708 1.568s-.524 1.589-1.7 1.589h-1.457zm8.877 4.377c1.526 0 2.574-.746 2.847-1.884l-1.441-.162c-.208.554-.72.844-1.384.844-.998 0-1.658-.656-1.671-1.777h4.56v-.473c0-2.297-1.381-3.307-2.992-3.307-1.875 0-3.098 1.377-3.098 3.397 0 2.054 1.206 3.362 3.179 3.362zm-1.645-4.019c.047-.835.665-1.538 1.586-1.538.886 0 1.483.648 1.491 1.538h-3.077zm5.861 3.891h1.542v-3.848c0-.831.627-1.419 1.475-1.419.26 0 .584.047.716.089v-1.419a3.794 3.794 0 00-.554-.042c-.75 0-1.377.426-1.615 1.184h-.068v-1.09h-1.496V163zm9.931-4.815c-.213-1.108-1.1-1.816-2.634-1.816-1.576 0-2.65.776-2.646 1.986-.004.955.584 1.585 1.841 1.845l1.116.235c.601.132.883.375.883.745 0 .448-.486.784-1.219.784-.708 0-1.168-.306-1.3-.894l-1.504.144c.192 1.202 1.202 1.914 2.808 1.914 1.636 0 2.791-.848 2.796-2.088-.005-.933-.606-1.504-1.841-1.773l-1.117-.239c-.665-.149-.929-.379-.925-.758-.004-.443.486-.75 1.13-.75.711 0 1.086.388 1.206.818l1.406-.153zm4.268 4.943c1.917 0 3.136-1.351 3.136-3.375 0-2.029-1.219-3.384-3.136-3.384-1.918 0-3.137 1.355-3.137 3.384 0 2.024 1.219 3.375 3.137 3.375zm.008-1.236c-1.061 0-1.581-.946-1.581-2.143 0-1.198.52-2.157 1.581-2.157 1.044 0 1.564.959 1.564 2.157 0 1.197-.52 2.143-1.564 2.143zm5.98-2.727c0-.946.571-1.492 1.385-1.492.797 0 1.274.524 1.274 1.398V163h1.543v-4.168c.004-1.568-.891-2.463-2.242-2.463-.98 0-1.653.469-1.952 1.198h-.076v-1.112h-1.475V163h1.543v-3.835zm7.653 3.967c1.027 0 1.641-.481 1.922-1.031h.051V163h1.483v-4.381c0-1.73-1.41-2.25-2.659-2.25-1.376 0-2.433.614-2.774 1.807l1.44.205c.154-.448.588-.831 1.343-.831.716 0 1.108.366 1.108 1.01v.025c0 .443-.465.465-1.62.588-1.269.137-2.484.516-2.484 1.99 0 1.287.942 1.969 2.19 1.969zm.401-1.133c-.644 0-1.104-.294-1.104-.861 0-.593.516-.84 1.206-.938.405-.055 1.215-.157 1.415-.319v.771c0 .729-.588 1.347-1.517 1.347zm6.149-7.726h-1.543V163h1.543v-8.727z" fill="#C0C6FC"/><path opacity=".88" d="M715.917 163.099c1.555 0 2.688-.891 2.684-2.12.004-.909-.564-1.562-1.584-1.708v-.057c.789-.17 1.318-.756 1.314-1.573.004-1.108-.941-2.013-2.393-2.013-1.413 0-2.507.841-2.536 2.06h1.268c.021-.611.59-.991 1.261-.991.678 0 1.129.412 1.125 1.022.004.636-.522 1.059-1.274 1.059h-.643v1.015h.643c.919 0 1.466.462 1.463 1.119.003.643-.554 1.083-1.332 1.083-.732 0-1.296-.38-1.328-.973h-1.335c.035 1.229 1.132 2.077 2.667 2.077zm6.591.039c1.755.004 2.802-1.381 2.802-3.767 0-2.372-1.054-3.743-2.802-3.743-1.747 0-2.798 1.367-2.802 3.743 0 2.383 1.048 3.767 2.802 3.767zm0-1.111c-.905 0-1.473-.909-1.47-2.656.004-1.733.568-2.646 1.47-2.646.906 0 1.471.913 1.474 2.646 0 1.747-.565 2.656-1.474 2.656zm6.477.973h1.285v-3.317c0-.671.448-1.125 1.002-1.125.543 0 .916.365.916.926V163h1.261v-3.402c0-.614.365-1.04.987-1.04.518 0 .93.305.93.98V163h1.289v-3.661c0-1.218-.703-1.865-1.704-1.865-.792 0-1.396.391-1.637.998h-.057c-.21-.618-.739-.998-1.474-.998-.732 0-1.278.377-1.506.998h-.064v-.927h-1.228V163zm8.974 0h1.286v-5.455h-1.286V163zm.647-6.229c.408 0 .742-.312.742-.696 0-.387-.334-.699-.742-.699-.412 0-.746.312-.746.699 0 .384.334.696.746.696zm3.246 3.033c0-.788.476-1.243 1.154-1.243.664 0 1.062.437 1.062 1.165V163h1.286v-3.473c.003-1.307-.742-2.053-1.868-2.053-.817 0-1.378.391-1.627.998h-.064v-.927h-1.228V163h1.285v-3.196z" fill="#C8CDFF"/><path fill="#E6E9FF" fill-opacity=".5" d="M552 306h200v30H552z"/><path d="M552 306h4v30h-4v-30z" fill="#C1C8FF" fill-opacity=".5"/><path opacity=".88" d="M564.861 325h1.581v-2.949h1.67c2.016 0 3.098-1.21 3.098-2.889 0-1.666-1.069-2.889-3.076-2.889h-3.273V325zm1.581-4.249v-3.157h1.449c1.184 0 1.708.639 1.708 1.568s-.524 1.589-1.7 1.589h-1.457zm8.877 4.377c1.526 0 2.574-.746 2.847-1.884l-1.441-.162c-.208.554-.72.844-1.384.844-.998 0-1.658-.656-1.671-1.777h4.56v-.473c0-2.297-1.381-3.307-2.992-3.307-1.875 0-3.098 1.377-3.098 3.397 0 2.054 1.206 3.362 3.179 3.362zm-1.645-4.019c.047-.835.665-1.538 1.586-1.538.886 0 1.483.648 1.491 1.538h-3.077zm5.861 3.891h1.542v-3.848c0-.831.627-1.419 1.475-1.419.26 0 .584.047.716.089v-1.419a3.794 3.794 0 00-.554-.042c-.75 0-1.377.426-1.615 1.184h-.068v-1.09h-1.496V325zm9.931-4.815c-.213-1.108-1.1-1.816-2.634-1.816-1.576 0-2.65.776-2.646 1.986-.004.955.584 1.585 1.841 1.845l1.116.235c.601.132.883.375.883.745 0 .448-.486.784-1.219.784-.708 0-1.168-.306-1.3-.894l-1.504.144c.192 1.202 1.202 1.914 2.808 1.914 1.636 0 2.791-.848 2.796-2.088-.005-.933-.606-1.504-1.841-1.773l-1.117-.239c-.665-.149-.929-.379-.925-.758-.004-.443.486-.75 1.13-.75.711 0 1.086.388 1.206.818l1.406-.153zm4.268 4.943c1.917 0 3.136-1.351 3.136-3.375 0-2.029-1.219-3.384-3.136-3.384-1.918 0-3.137 1.355-3.137 3.384 0 2.024 1.219 3.375 3.137 3.375zm.008-1.236c-1.061 0-1.581-.946-1.581-2.143 0-1.198.52-2.157 1.581-2.157 1.044 0 1.564.959 1.564 2.157 0 1.197-.52 2.143-1.564 2.143zm5.98-2.727c0-.946.571-1.492 1.385-1.492.797 0 1.274.524 1.274 1.398V325h1.543v-4.168c.004-1.568-.891-2.463-2.242-2.463-.98 0-1.653.469-1.952 1.198h-.076v-1.112h-1.475V325h1.543v-3.835zm7.653 3.967c1.027 0 1.641-.481 1.922-1.031h.051V325h1.483v-4.381c0-1.73-1.41-2.25-2.659-2.25-1.376 0-2.433.614-2.774 1.807l1.44.205c.154-.448.588-.831 1.343-.831.716 0 1.108.366 1.108 1.01v.025c0 .443-.465.465-1.62.588-1.269.137-2.484.516-2.484 1.99 0 1.287.942 1.969 2.19 1.969zm.401-1.133c-.644 0-1.104-.294-1.104-.861 0-.593.516-.84 1.206-.938.405-.055 1.215-.157 1.415-.319v.771c0 .729-.588 1.347-1.517 1.347zm6.149-7.726h-1.543V325h1.543v-8.727z" fill="#C0C6FC"/><path opacity=".88" d="M715.917 325.099c1.555 0 2.688-.891 2.684-2.12.004-.909-.564-1.562-1.584-1.708v-.057c.789-.17 1.318-.756 1.314-1.573.004-1.108-.941-2.013-2.393-2.013-1.413 0-2.507.841-2.536 2.06h1.268c.021-.611.59-.991 1.261-.991.678 0 1.129.412 1.125 1.022.004.636-.522 1.059-1.274 1.059h-.643v1.015h.643c.919 0 1.466.462 1.463 1.119.003.643-.554 1.083-1.332 1.083-.732 0-1.296-.38-1.328-.973h-1.335c.035 1.229 1.132 2.077 2.667 2.077zm6.591.039c1.755.004 2.802-1.381 2.802-3.767 0-2.372-1.054-3.743-2.802-3.743-1.747 0-2.798 1.367-2.802 3.743 0 2.383 1.048 3.767 2.802 3.767zm0-1.111c-.905 0-1.473-.909-1.47-2.656.004-1.733.568-2.646 1.47-2.646.906 0 1.471.913 1.474 2.646 0 1.747-.565 2.656-1.474 2.656zm6.477.973h1.285v-3.317c0-.671.448-1.125 1.002-1.125.543 0 .916.365.916.926V325h1.261v-3.402c0-.614.365-1.04.987-1.04.518 0 .93.305.93.98V325h1.289v-3.661c0-1.218-.703-1.865-1.704-1.865-.792 0-1.396.391-1.637.998h-.057c-.21-.618-.739-.998-1.474-.998-.732 0-1.278.377-1.506.998h-.064v-.927h-1.228V325zm8.974 0h1.286v-5.455h-1.286V325zm.647-6.229c.408 0 .742-.312.742-.696 0-.387-.334-.699-.742-.699-.412 0-.746.312-.746.699 0 .384.334.696.746.696zm3.246 3.033c0-.788.476-1.243 1.154-1.243.664 0 1.062.437 1.062 1.165V325h1.286v-3.473c.003-1.307-.742-2.053-1.868-2.053-.817 0-1.378.391-1.627.998h-.064v-.927h-1.228V325h1.285v-3.196z" fill="#C8CDFF"/><path fill="#CCF3FF" fill-opacity=".5" d="M332 385h200v60H332z"/><path d="M332 385h4v60h-4v-60z" fill="#B5E1FF" fill-opacity=".5"/><path opacity=".88" d="M344.861 398.273V407h1.517v-6.009h.081l2.412 5.983h1.133l2.412-5.97h.081V407h1.517v-8.727h-1.934l-2.591 6.324h-.103l-2.591-6.324h-1.934zm13.704 8.855c1.526 0 2.574-.746 2.847-1.884l-1.44-.162c-.209.554-.721.844-1.385.844-.998 0-1.658-.656-1.671-1.777h4.56v-.473c0-2.297-1.381-3.307-2.992-3.307-1.875 0-3.098 1.377-3.098 3.397 0 2.054 1.206 3.362 3.179 3.362zm-1.645-4.019c.047-.835.665-1.538 1.586-1.538.886 0 1.483.648 1.491 1.538h-3.077zm8.759 4.019c1.525 0 2.573-.746 2.846-1.884l-1.44-.162c-.209.554-.72.844-1.385.844-.997 0-1.658-.656-1.671-1.777h4.56v-.473c0-2.297-1.381-3.307-2.991-3.307-1.875 0-3.098 1.377-3.098 3.397 0 2.054 1.206 3.362 3.179 3.362zm-1.645-4.019c.047-.835.665-1.538 1.585-1.538.886 0 1.483.648 1.491 1.538h-3.076zm9.129-2.654h-1.292v-1.569h-1.542v1.569h-.929v1.193h.929v3.639c-.009 1.231.886 1.837 2.045 1.802.439-.012.742-.098.908-.153l-.26-1.206c-.085.021-.26.06-.452.06-.387 0-.699-.137-.699-.759v-3.383h1.292v-1.193zm1.29 6.545h1.542v-6.545h-1.542V407zm.775-7.474c.49 0 .891-.375.891-.836 0-.464-.401-.839-.891-.839-.494 0-.895.375-.895.839 0 .461.401.836.895.836zm3.896 3.639c0-.946.571-1.492 1.385-1.492.797 0 1.274.524 1.274 1.398V407h1.543v-4.168c.004-1.568-.891-2.463-2.241-2.463-.981 0-1.654.469-1.952 1.198h-.077v-1.112h-1.474V407h1.542v-3.835zm8.617 6.426c1.768 0 3.072-.81 3.072-2.484v-6.652h-1.521v1.082h-.085c-.235-.473-.725-1.168-1.88-1.168-1.512 0-2.701 1.185-2.701 3.337 0 2.135 1.189 3.2 2.697 3.2 1.121 0 1.645-.601 1.884-1.082h.076v1.24c0 .963-.639 1.359-1.517 1.359-.929 0-1.338-.439-1.525-.822l-1.389.337c.281.916 1.223 1.653 2.889 1.653zm.013-3.895c-1.019 0-1.556-.793-1.556-1.999 0-1.188.529-2.062 1.556-2.062.992 0 1.538.822 1.538 2.062 0 1.249-.554 1.999-1.538 1.999z" fill="#AED7F2"/><path opacity=".88" d="M495.999 407.099c1.57.011 2.624-1.068 2.621-2.507.003-1.374-.977-2.368-2.252-2.368-.781 0-1.47.38-1.818 1.005h-.049c.003-1.531.564-2.461 1.573-2.461.625 0 1.047.362 1.182.92h1.296c-.156-1.176-1.104-2.06-2.478-2.06-1.747 0-2.852 1.456-2.852 3.942-.003 2.667 1.382 3.522 2.777 3.529zm-.007-1.065c-.778 0-1.346-.643-1.349-1.403.007-.763.596-1.402 1.367-1.402.77 0 1.335.61 1.331 1.392.004.795-.578 1.413-1.349 1.413zm6.516 1.104c1.755.004 2.802-1.381 2.802-3.767 0-2.372-1.054-3.743-2.802-3.743-1.747 0-2.798 1.367-2.802 3.743 0 2.383 1.048 3.767 2.802 3.767zm0-1.111c-.905 0-1.473-.909-1.47-2.656.004-1.733.568-2.646 1.47-2.646.906 0 1.471.913 1.474 2.646 0 1.747-.565 2.656-1.474 2.656zm6.477.973h1.285v-3.317c0-.671.448-1.125 1.002-1.125.543 0 .916.365.916.926V407h1.261v-3.402c0-.614.365-1.04.987-1.04.518 0 .93.305.93.98V407h1.289v-3.661c0-1.218-.703-1.865-1.704-1.865-.792 0-1.396.391-1.637.998h-.057c-.21-.618-.739-.998-1.474-.998-.732 0-1.278.377-1.506.998h-.064v-.927h-1.228V407zm8.974 0h1.286v-5.455h-1.286V407zm.647-6.229c.408 0 .742-.312.742-.696 0-.387-.334-.699-.742-.699-.412 0-.746.312-.746.699 0 .384.334.696.746.696zm3.246 3.033c0-.788.476-1.243 1.154-1.243.664 0 1.062.437 1.062 1.165V407h1.286v-3.473c.003-1.307-.742-2.053-1.868-2.053-.817 0-1.378.391-1.627.998h-.064v-.927h-1.228V407h1.285v-3.196z" fill="#8BC7EF" fill-opacity=".6"/><path fill="#CCF3FF" fill-opacity=".5" d="M112 110h200v60H112z"/><path d="M112 110h4v60h-4v-60z" fill="#B5E1FF" fill-opacity=".5"/><path opacity=".88" d="M124.861 123.273V132h1.517v-6.009h.081l2.412 5.983h1.133l2.412-5.97h.081V132h1.517v-8.727h-1.934l-2.591 6.324h-.103l-2.591-6.324h-1.934zm13.704 8.855c1.526 0 2.574-.746 2.847-1.884l-1.44-.162c-.209.554-.721.844-1.385.844-.998 0-1.658-.656-1.671-1.777h4.56v-.473c0-2.297-1.381-3.307-2.992-3.307-1.875 0-3.098 1.377-3.098 3.397 0 2.054 1.206 3.362 3.179 3.362zm-1.645-4.019c.047-.835.665-1.538 1.586-1.538.886 0 1.483.648 1.491 1.538h-3.077zm8.759 4.019c1.525 0 2.573-.746 2.846-1.884l-1.44-.162c-.209.554-.72.844-1.385.844-.997 0-1.658-.656-1.671-1.777h4.56v-.473c0-2.297-1.381-3.307-2.991-3.307-1.875 0-3.098 1.377-3.098 3.397 0 2.054 1.206 3.362 3.179 3.362zm-1.645-4.019c.047-.835.665-1.538 1.585-1.538.886 0 1.483.648 1.491 1.538h-3.076zm9.129-2.654h-1.292v-1.569h-1.542v1.569h-.929v1.193h.929v3.639c-.009 1.231.886 1.837 2.045 1.802.439-.012.742-.098.908-.153l-.26-1.206c-.085.021-.26.06-.452.06-.387 0-.699-.137-.699-.759v-3.383h1.292v-1.193zm1.29 6.545h1.542v-6.545h-1.542V132zm.775-7.474c.49 0 .891-.375.891-.836 0-.464-.401-.839-.891-.839-.494 0-.895.375-.895.839 0 .461.401.836.895.836zm3.896 3.639c0-.946.571-1.492 1.385-1.492.797 0 1.274.524 1.274 1.398V132h1.543v-4.168c.004-1.568-.891-2.463-2.241-2.463-.981 0-1.654.469-1.952 1.198h-.077v-1.112h-1.474V132h1.542v-3.835zm8.617 6.426c1.768 0 3.072-.81 3.072-2.484v-6.652h-1.521v1.082h-.085c-.235-.473-.725-1.168-1.88-1.168-1.512 0-2.701 1.185-2.701 3.337 0 2.135 1.189 3.2 2.697 3.2 1.121 0 1.645-.601 1.884-1.082h.076v1.24c0 .963-.639 1.359-1.517 1.359-.929 0-1.338-.439-1.525-.822l-1.389.337c.281.916 1.223 1.653 2.889 1.653zm.013-3.895c-1.019 0-1.556-.793-1.556-1.999 0-1.188.529-2.062 1.556-2.062.992 0 1.538.822 1.538 2.062 0 1.249-.554 1.999-1.538 1.999z" fill="#AED7F2"/><path opacity=".88" d="M275.999 132.099c1.57.011 2.624-1.068 2.621-2.507.003-1.374-.977-2.368-2.252-2.368-.781 0-1.47.38-1.818 1.005h-.049c.003-1.531.564-2.461 1.573-2.461.625 0 1.047.362 1.182.92h1.296c-.156-1.176-1.104-2.06-2.478-2.06-1.747 0-2.852 1.456-2.852 3.942-.003 2.667 1.382 3.522 2.777 3.529zm-.007-1.065c-.778 0-1.346-.643-1.349-1.403.007-.763.596-1.402 1.367-1.402.77 0 1.335.61 1.331 1.392.004.795-.578 1.413-1.349 1.413zm6.516 1.104c1.755.004 2.802-1.381 2.802-3.767 0-2.372-1.054-3.743-2.802-3.743-1.747 0-2.798 1.367-2.802 3.743 0 2.383 1.048 3.767 2.802 3.767zm0-1.111c-.905 0-1.473-.909-1.47-2.656.004-1.733.568-2.646 1.47-2.646.906 0 1.471.913 1.474 2.646 0 1.747-.565 2.656-1.474 2.656zm6.477.973h1.285v-3.317c0-.671.448-1.125 1.002-1.125.543 0 .916.365.916.926V132h1.261v-3.402c0-.614.365-1.04.987-1.04.518 0 .93.305.93.98V132h1.289v-3.661c0-1.218-.703-1.865-1.704-1.865-.792 0-1.396.391-1.637.998h-.057c-.21-.618-.739-.998-1.474-.998-.732 0-1.278.377-1.506.998h-.064v-.927h-1.228V132zm8.974 0h1.286v-5.455h-1.286V132zm.647-6.229c.408 0 .742-.312.742-.696 0-.387-.334-.699-.742-.699-.412 0-.746.312-.746.699 0 .384.334.696.746.696zm3.246 3.033c0-.788.476-1.243 1.154-1.243.664 0 1.062.437 1.062 1.165V132h1.286v-3.473c.003-1.307-.742-2.053-1.868-2.053-.817 0-1.378.391-1.627.998h-.064v-.927h-1.228V132h1.285v-3.196z" fill="#8BC7EF" fill-opacity=".6"/><path fill="#FFF3E1" fill-opacity=".5" d="M112 174h200v90H112z"/><path d="M112 174h4v90h-4v-90z" fill="#FDDFC6" fill-opacity=".5"/><path opacity=".88" d="M126.697 223h1.56l1.752-6.124h.068l1.747 6.124h1.56l2.463-8.727h-1.701l-1.572 6.417h-.077l-1.683-6.417h-1.547l-1.679 6.413h-.081l-1.572-6.413h-1.701l2.463 8.727zm12.365.128c1.917 0 3.136-1.351 3.136-3.375 0-2.029-1.219-3.384-3.136-3.384-1.918 0-3.137 1.355-3.137 3.384 0 2.024 1.219 3.375 3.137 3.375zm.008-1.236c-1.061 0-1.581-.946-1.581-2.143 0-1.198.52-2.157 1.581-2.157 1.044 0 1.564.959 1.564 2.157 0 1.197-.52 2.143-1.564 2.143zm4.437 1.108h1.543v-3.848c0-.831.626-1.419 1.475-1.419.259 0 .583.047.715.089v-1.419a3.772 3.772 0 00-.554-.042c-.75 0-1.376.426-1.615 1.184h-.068v-1.09h-1.496V223zm4.758 0h1.543v-2.199l.562-.601 2.003 2.8h1.845l-2.684-3.72 2.535-2.825h-1.802l-2.353 2.629h-.106v-4.811h-1.543V223z" fill="#EFD1B8"/><path opacity=".88" d="M275.861 215.628c-1.577-.011-2.625 1.072-2.625 2.493.004 1.37.98 2.361 2.255 2.361.785 0 1.467-.38 1.818-1.005h.05c-.003 1.556-.568 2.483-1.573 2.483-.629 0-1.051-.363-1.182-.942h-1.297c.149 1.204 1.101 2.081 2.479 2.081 1.744 0 2.855-1.456 2.852-3.959-.004-2.649-1.382-3.505-2.777-3.512zm.003 1.065c.778 0 1.35.646 1.35 1.389.003.753-.597 1.399-1.364 1.399-.774 0-1.332-.611-1.335-1.389 0-.781.579-1.399 1.349-1.399zm6.644 6.445c1.755.004 2.802-1.381 2.802-3.767 0-2.372-1.054-3.743-2.802-3.743-1.747 0-2.798 1.367-2.802 3.743 0 2.383 1.048 3.767 2.802 3.767zm0-1.111c-.905 0-1.473-.909-1.47-2.656.004-1.733.568-2.646 1.47-2.646.906 0 1.471.913 1.474 2.646 0 1.747-.565 2.656-1.474 2.656zm6.477.973h1.285v-3.317c0-.671.448-1.125 1.002-1.125.543 0 .916.365.916.926V223h1.261v-3.402c0-.614.365-1.04.987-1.04.518 0 .93.305.93.98V223h1.289v-3.661c0-1.218-.703-1.865-1.704-1.865-.792 0-1.396.391-1.637.998h-.057c-.21-.618-.739-.998-1.474-.998-.732 0-1.278.377-1.506.998h-.064v-.927h-1.228V223zm8.974 0h1.286v-5.455h-1.286V223zm.647-6.229c.408 0 .742-.312.742-.696 0-.387-.334-.699-.742-.699-.412 0-.746.312-.746.699 0 .384.334.696.746.696zm3.246 3.033c0-.788.476-1.243 1.154-1.243.664 0 1.062.437 1.062 1.165V223h1.286v-3.473c.003-1.307-.742-2.053-1.868-2.053-.817 0-1.378.391-1.627.998h-.064v-.927h-1.228V223h1.285v-3.196z" fill="#F6C9A3" fill-opacity=".6"/><path fill="#FFF3E1" fill-opacity=".5" d="M112 405h200v60H112z"/><path d="M112 405h4v60h-4v-60z" fill="#FDDFC6" fill-opacity=".5"/><path opacity=".88" d="M126.697 439h1.56l1.752-6.124h.068l1.747 6.124h1.56l2.463-8.727h-1.701l-1.572 6.417h-.077l-1.683-6.417h-1.547l-1.679 6.413h-.081l-1.572-6.413h-1.701l2.463 8.727zm12.365.128c1.917 0 3.136-1.351 3.136-3.375 0-2.029-1.219-3.384-3.136-3.384-1.918 0-3.137 1.355-3.137 3.384 0 2.024 1.219 3.375 3.137 3.375zm.008-1.236c-1.061 0-1.581-.946-1.581-2.143 0-1.198.52-2.157 1.581-2.157 1.044 0 1.564.959 1.564 2.157 0 1.197-.52 2.143-1.564 2.143zm4.437 1.108h1.543v-3.848c0-.831.626-1.419 1.475-1.419.259 0 .583.047.715.089v-1.419a3.772 3.772 0 00-.554-.042c-.75 0-1.376.426-1.615 1.184h-.068v-1.09h-1.496V439zm4.758 0h1.543v-2.199l.562-.601 2.003 2.8h1.845l-2.684-3.72 2.535-2.825h-1.802l-2.353 2.629h-.106v-4.811h-1.543V439z" fill="#EFD1B8"/><path opacity=".88" d="M271.763 431.727h-1.254l-1.807 1.161v1.208l1.701-1.087h.042V439h1.318v-7.273zm1.846 7.273h4.986v-1.101h-3.168v-.05l1.254-1.274c1.413-1.357 1.804-2.017 1.804-2.838 0-1.218-.991-2.109-2.454-2.109-1.442 0-2.464.895-2.464 2.276h1.253c0-.742.469-1.207 1.193-1.207.693 0 1.208.422 1.208 1.108 0 .607-.37 1.04-1.087 1.768l-2.525 2.475V439zm8.899.138c1.755.004 2.802-1.381 2.802-3.767 0-2.372-1.054-3.743-2.802-3.743-1.747 0-2.798 1.367-2.802 3.743 0 2.383 1.048 3.767 2.802 3.767zm0-1.111c-.905 0-1.473-.909-1.47-2.656.004-1.733.568-2.646 1.47-2.646.906 0 1.471.913 1.474 2.646 0 1.747-.565 2.656-1.474 2.656zm6.477.973h1.285v-3.317c0-.671.448-1.125 1.002-1.125.543 0 .916.365.916.926V439h1.261v-3.402c0-.614.365-1.04.987-1.04.518 0 .93.305.93.98V439h1.289v-3.661c0-1.218-.703-1.865-1.704-1.865-.792 0-1.396.391-1.637.998h-.057c-.21-.618-.739-.998-1.474-.998-.732 0-1.278.377-1.506.998h-.064v-.927h-1.228V439zm8.974 0h1.286v-5.455h-1.286V439zm.647-6.229c.408 0 .742-.312.742-.696 0-.387-.334-.699-.742-.699-.412 0-.746.312-.746.699 0 .384.334.696.746.696zm3.246 3.033c0-.788.476-1.243 1.154-1.243.664 0 1.062.437 1.062 1.165V439h1.286v-3.473c.003-1.307-.742-2.053-1.868-2.053-.817 0-1.378.391-1.627.998h-.064v-.927h-1.228V439h1.285v-3.196z" fill="#F6C9A3" fill-opacity=".6"/><path d="M112 332h200v69H112v-69z" fill="#CDF4D5"/><path d="M112 332h4v69h-4v-69z" fill="#96E6B9"/><path opacity=".88" d="M124.861 370.5h1.581v-3.707h3.626v-1.326h-3.626v-2.369h4.01v-1.325h-5.591v8.727zm6.869 0h1.543v-3.848c0-.831.626-1.419 1.474-1.419.26 0 .584.047.716.089v-1.419a3.783 3.783 0 00-.554-.042c-.75 0-1.376.426-1.615 1.184h-.068v-1.09h-1.496v6.545zm7.386.128c1.526 0 2.574-.746 2.847-1.884l-1.441-.162c-.208.554-.72.844-1.385.844-.997 0-1.657-.656-1.67-1.777h4.56v-.473c0-2.297-1.381-3.307-2.992-3.307-1.875 0-3.098 1.377-3.098 3.397 0 2.054 1.206 3.362 3.179 3.362zm-1.645-4.019c.047-.835.665-1.538 1.585-1.538.887 0 1.483.648 1.492 1.538h-3.077zm8.758 4.019c1.526 0 2.574-.746 2.847-1.884l-1.44-.162c-.209.554-.721.844-1.385.844-.997 0-1.658-.656-1.671-1.777h4.56v-.473c0-2.297-1.381-3.307-2.992-3.307-1.875 0-3.098 1.377-3.098 3.397 0 2.054 1.206 3.362 3.179 3.362zm-1.644-4.019c.046-.835.664-1.538 1.585-1.538.886 0 1.483.648 1.491 1.538h-3.076zm14.01-.924c-.213-1.108-1.1-1.816-2.634-1.816-1.576 0-2.65.776-2.646 1.986-.004.955.584 1.585 1.841 1.845l1.116.235c.601.132.882.375.882.745 0 .448-.485.784-1.218.784-.708 0-1.168-.306-1.3-.894l-1.504.144c.192 1.202 1.201 1.914 2.808 1.914 1.636 0 2.791-.848 2.795-2.088-.004-.933-.605-1.504-1.84-1.773l-1.117-.239c-.665-.149-.929-.379-.925-.758-.004-.443.486-.75 1.13-.75.711 0 1.086.388 1.206.818l1.406-.153zm2.955-3.912h-1.543v8.727h1.543v-8.727zm4.441 8.855c1.918 0 3.137-1.351 3.137-3.375 0-2.029-1.219-3.384-3.137-3.384-1.917 0-3.136 1.355-3.136 3.384 0 2.024 1.219 3.375 3.136 3.375zm.009-1.236c-1.061 0-1.581-.946-1.581-2.143 0-1.198.52-2.157 1.581-2.157 1.044 0 1.564.959 1.564 2.157 0 1.197-.52 2.143-1.564 2.143zm7.706-5.437h-1.292v-1.569h-1.542v1.569h-.929v1.193h.929v3.639c-.009 1.231.886 1.837 2.045 1.802.439-.012.742-.098.908-.153l-.26-1.206c-.085.021-.26.06-.452.06-.388 0-.699-.137-.699-.759v-3.383h1.292v-1.193z" fill="#378053" fill-opacity=".7"/><path opacity=".88" d="M274.374 370.5h1.367l3.089-6.147v-1.126h-4.954v1.101h3.591v.05l-3.093 6.122zm8.134.138c1.755.004 2.802-1.381 2.802-3.767 0-2.372-1.054-3.743-2.802-3.743-1.747 0-2.798 1.367-2.802 3.743 0 2.383 1.048 3.767 2.802 3.767zm0-1.111c-.905 0-1.473-.909-1.47-2.656.004-1.733.568-2.646 1.47-2.646.906 0 1.471.913 1.474 2.646 0 1.747-.565 2.656-1.474 2.656zm6.477.973h1.285v-3.317c0-.671.448-1.125 1.002-1.125.543 0 .916.365.916.926v3.516h1.261v-3.402c0-.614.365-1.04.987-1.04.518 0 .93.305.93.98v3.462h1.289v-3.661c0-1.218-.703-1.865-1.704-1.865-.792 0-1.396.391-1.637.998h-.057c-.21-.618-.739-.998-1.474-.998-.732 0-1.278.377-1.506.998h-.064v-.927h-1.228v5.455zm8.974 0h1.286v-5.455h-1.286v5.455zm.647-6.229c.408 0 .742-.312.742-.696 0-.387-.334-.699-.742-.699-.412 0-.746.312-.746.699 0 .384.334.696.746.696zm3.246 3.033c0-.788.476-1.243 1.154-1.243.664 0 1.062.437 1.062 1.165v3.274h1.286v-3.473c.003-1.307-.742-2.053-1.868-2.053-.817 0-1.378.391-1.627.998h-.064v-.927h-1.228v5.455h1.285v-3.196z" fill="#467D6E" fill-opacity=".5"/><path d="M30.228 165.727h-1.445l-1.8 1.14v1.364l1.665-1.044h.043V173h1.537v-7.273zm4.58 7.433c1.83 0 2.934-1.392 2.937-3.789.004-2.38-1.115-3.743-2.937-3.743-1.825 0-2.933 1.36-2.937 3.743-.007 2.39 1.105 3.785 2.937 3.789zm0-1.275c-.834 0-1.374-.838-1.37-2.514.003-1.652.54-2.483 1.37-2.483.828 0 1.367.831 1.367 2.483.004 1.676-.536 2.514-1.367 2.514zm4.932-3.296a.863.863 0 00.852-.852.863.863 0 00-.852-.845.849.849 0 100 1.697zm0 3.566c.454 0 .849-.38.852-.852a.863.863 0 00-.852-.846.849.849 0 100 1.698zm4.931 1.005c1.83 0 2.934-1.392 2.937-3.789.004-2.38-1.115-3.743-2.936-3.743-1.826 0-2.934 1.36-2.937 3.743-.007 2.39 1.104 3.785 2.937 3.789zm0-1.275c-.834 0-1.374-.838-1.37-2.514.003-1.652.54-2.483 1.37-2.483.828 0 1.368.831 1.368 2.483.003 1.676-.537 2.514-1.367 2.514zm6.885 1.275c1.83 0 2.934-1.392 2.937-3.789.004-2.38-1.115-3.743-2.937-3.743-1.825 0-2.933 1.36-2.936 3.743-.008 2.39 1.104 3.785 2.936 3.789zm0-1.275c-.834 0-1.374-.838-1.37-2.514.003-1.652.54-2.483 1.37-2.483.828 0 1.367.831 1.367 2.483.004 1.676-.536 2.514-1.367 2.514zm-16.685-65.257c-1.626-.007-2.724 1.058-2.716 2.521.003 1.357.944 2.34 2.233 2.34.8 0 1.51-.387 1.833-1.026h.05c-.004 1.442-.505 2.319-1.453 2.319-.557 0-.959-.305-1.076-.835h-1.516c.142 1.226 1.136 2.152 2.592 2.152 1.8 0 2.962-1.456 2.958-3.924-.004-2.635-1.41-3.54-2.905-3.547zm.01 1.207c.708 0 1.23.576 1.237 1.268a1.254 1.254 0 01-1.25 1.271c-.71 0-1.218-.554-1.222-1.267-.007-.711.522-1.272 1.236-1.272zm4.859 1.754a.863.863 0 00.852-.852.863.863 0 00-.852-.845.849.849 0 100 1.697zm0 3.566c.454 0 .849-.38.852-.852a.863.863 0 00-.852-.846.849.849 0 100 1.698zm4.931 1.005c1.83 0 2.934-1.392 2.937-3.789.004-2.38-1.115-3.743-2.936-3.743-1.826 0-2.934 1.36-2.937 3.743-.007 2.39 1.104 3.785 2.937 3.789zm0-1.275c-.834 0-1.374-.838-1.37-2.514.003-1.652.54-2.483 1.37-2.483.828 0 1.368.831 1.368 2.483.003 1.676-.537 2.514-1.367 2.514zm6.885 1.275c1.83 0 2.934-1.392 2.937-3.789.004-2.38-1.115-3.743-2.937-3.743-1.825 0-2.933 1.36-2.936 3.743-.008 2.39 1.104 3.785 2.936 3.789zm0-1.275c-.834 0-1.374-.838-1.37-2.514.003-1.652.54-2.483 1.37-2.483.828 0 1.367.831 1.367 2.483.004 1.676-.536 2.514-1.367 2.514zM32.22 224.727h-1.445l-1.8 1.14v1.364l1.665-1.044h.043V232h1.537v-7.273zm4.893 0h-1.445l-1.8 1.14v1.364l1.665-1.044h.042V232h1.538v-7.273zm2.627 2.862a.863.863 0 00.852-.852.863.863 0 00-.852-.845.849.849 0 100 1.697zm0 3.566c.454 0 .849-.38.852-.852a.863.863 0 00-.852-.846.849.849 0 100 1.698zm4.931 1.005c1.83 0 2.934-1.392 2.937-3.789.004-2.38-1.115-3.743-2.936-3.743-1.826 0-2.934 1.36-2.937 3.743-.007 2.39 1.104 3.785 2.937 3.789zm0-1.275c-.834 0-1.374-.838-1.37-2.514.003-1.652.54-2.483 1.37-2.483.828 0 1.368.831 1.368 2.483.003 1.676-.537 2.514-1.367 2.514zm6.885 1.275c1.83 0 2.934-1.392 2.937-3.789.004-2.38-1.115-3.743-2.937-3.743-1.825 0-2.933 1.36-2.936 3.743-.008 2.39 1.104 3.785 2.936 3.789zm0-1.275c-.834 0-1.374-.838-1.37-2.514.003-1.652.54-2.483 1.37-2.483.828 0 1.367.831 1.367 2.483.004 1.676-.536 2.514-1.367 2.514zm-20.742 52.842H29.37l-1.8 1.14v1.364l1.665-1.044h.042V291h1.538v-7.273zM32.543 291h5.184v-1.257h-3.054v-.05l1.062-1.04c1.495-1.364 1.896-2.046 1.896-2.873 0-1.261-1.03-2.152-2.588-2.152-1.527 0-2.575.912-2.571 2.34h1.46c-.004-.696.436-1.122 1.1-1.122.64 0 1.115.398 1.115 1.037 0 .579-.355.976-1.016 1.612l-2.588 2.397V291zm7.197-4.411a.863.863 0 00.852-.852.863.863 0 00-.852-.845.849.849 0 100 1.697zm0 3.566c.454 0 .849-.38.852-.852a.863.863 0 00-.852-.846.849.849 0 100 1.698zm4.931 1.005c1.83 0 2.934-1.392 2.937-3.789.004-2.38-1.115-3.743-2.936-3.743-1.826 0-2.934 1.36-2.937 3.743-.007 2.39 1.104 3.785 2.937 3.789zm0-1.275c-.834 0-1.374-.838-1.37-2.514.003-1.652.54-2.483 1.37-2.483.828 0 1.368.831 1.368 2.483.003 1.676-.537 2.514-1.367 2.514zm6.885 1.275c1.83 0 2.934-1.392 2.937-3.789.004-2.38-1.115-3.743-2.937-3.743-1.825 0-2.933 1.36-2.936 3.743-.008 2.39 1.104 3.785 2.936 3.789zm0-1.275c-.834 0-1.374-.838-1.37-2.514.003-1.652.54-2.483 1.37-2.483.828 0 1.367.831 1.367 2.483.004 1.676-.536 2.514-1.367 2.514zm-21.035 52.842h-1.445l-1.8 1.14v1.364l1.665-1.044h.043V350h1.537v-7.273zm4.417 7.372c1.633 0 2.802-.898 2.798-2.141.004-.905-.572-1.552-1.64-1.687v-.057c.813-.145 1.374-.72 1.37-1.537.004-1.147-1.001-2.049-2.507-2.049-1.491 0-2.614.873-2.635 2.131h1.474c.018-.554.526-.913 1.154-.913.622 0 1.037.376 1.033.923.004.572-.483.959-1.182.959h-.678v1.129h.678c.824 0 1.339.412 1.335.998.004.579-.493.977-1.197.977-.678 0-1.186-.355-1.214-.888h-1.548c.024 1.271 1.16 2.155 2.759 2.155zm4.802-4.51a.863.863 0 00.852-.852.863.863 0 00-.852-.845.849.849 0 100 1.697zm0 3.566c.454 0 .849-.38.852-.852a.863.863 0 00-.852-.846.849.849 0 100 1.698zm4.931 1.005c1.83 0 2.934-1.392 2.937-3.789.004-2.38-1.115-3.743-2.936-3.743-1.826 0-2.934 1.36-2.937 3.743-.007 2.39 1.104 3.785 2.937 3.789zm0-1.275c-.834 0-1.374-.838-1.37-2.514.003-1.652.54-2.483 1.37-2.483.828 0 1.368.831 1.368 2.483.003 1.676-.537 2.514-1.367 2.514zm6.885 1.275c1.83 0 2.934-1.392 2.937-3.789.004-2.38-1.115-3.743-2.937-3.743-1.825 0-2.933 1.36-2.936 3.743-.008 2.39 1.104 3.785 2.936 3.789zm0-1.275c-.834 0-1.374-.838-1.37-2.514.003-1.652.54-2.483 1.37-2.483.828 0 1.367.831 1.367 2.483.004 1.676-.536 2.514-1.367 2.514zm-21.22 52.842H28.89l-1.8 1.14v1.364l1.665-1.044h.043V409h1.538v-7.273zm1.618 5.995h3.49V409h1.471v-1.278h.902v-1.233h-.902v-4.762H34.99l-3.036 4.784v1.211zm3.52-1.233h-1.972v-.056l1.914-3.03h.057v3.086zm4.266-1.9a.863.863 0 00.852-.852.863.863 0 00-.852-.845.849.849 0 100 1.697zm0 3.566c.454 0 .849-.38.852-.852a.863.863 0 00-.852-.846.849.849 0 100 1.698zm4.931 1.005c1.83 0 2.934-1.392 2.937-3.789.004-2.38-1.115-3.743-2.936-3.743-1.826 0-2.934 1.36-2.937 3.743-.007 2.39 1.104 3.785 2.937 3.789zm0-1.275c-.834 0-1.374-.838-1.37-2.514.003-1.652.54-2.483 1.37-2.483.828 0 1.368.831 1.368 2.483.003 1.676-.537 2.514-1.367 2.514zm6.885 1.275c1.83 0 2.934-1.392 2.937-3.789.004-2.38-1.115-3.743-2.937-3.743-1.825 0-2.933 1.36-2.936 3.743-.008 2.39 1.104 3.785 2.936 3.789zm0-1.275c-.834 0-1.374-.838-1.37-2.514.003-1.652.54-2.483 1.37-2.483.828 0 1.367.831 1.367 2.483.004 1.676-.536 2.514-1.367 2.514zm-20.888 52.842h-1.446l-1.8 1.14v1.364l1.665-1.044h.043V468h1.538v-7.273zm4.384 7.372c1.62 0 2.72-1.054 2.717-2.524.004-1.392-.97-2.394-2.28-2.394-.639 0-1.19.266-1.445.625H34l.189-1.822h3.178v-1.257h-4.446l-.345 3.835 1.367.246c.224-.302.657-.491 1.087-.491.732.004 1.257.533 1.257 1.297 0 .756-.515 1.278-1.236 1.278-.61 0-1.104-.383-1.14-.948H32.42c.028 1.257 1.126 2.155 2.631 2.155zm4.688-4.51a.863.863 0 00.852-.852.863.863 0 00-.852-.845.849.849 0 100 1.697zm0 3.566c.454 0 .849-.38.852-.852a.863.863 0 00-.852-.846.849.849 0 100 1.698zm4.931 1.005c1.83 0 2.934-1.392 2.937-3.789.004-2.38-1.115-3.743-2.936-3.743-1.826 0-2.934 1.36-2.937 3.743-.007 2.39 1.104 3.785 2.937 3.789zm0-1.275c-.834 0-1.374-.838-1.37-2.514.003-1.652.54-2.483 1.37-2.483.828 0 1.368.831 1.368 2.483.003 1.676-.537 2.514-1.367 2.514zm6.885 1.275c1.83 0 2.934-1.392 2.937-3.789.004-2.38-1.115-3.743-2.937-3.743-1.825 0-2.933 1.36-2.936 3.743-.008 2.39 1.104 3.785 2.936 3.789zm0-1.275c-.834 0-1.374-.838-1.37-2.514.003-1.652.54-2.483 1.37-2.483.828 0 1.367.831 1.367 2.483.004 1.676-.536 2.514-1.367 2.514zm-21.045 57.842h-1.445l-1.8 1.14v1.364l1.665-1.044h.043V532h1.537v-7.273zm4.52 7.372c1.62.008 2.724-1.054 2.72-2.535.004-1.364-.948-2.347-2.237-2.347-.799 0-1.506.383-1.832 1.026h-.05c.007-1.417.504-2.298 1.452-2.298.558 0 .96.306 1.076.814h1.517c-.146-1.197-1.14-2.131-2.593-2.131-1.797 0-2.95 1.456-2.958 3.899-.003 2.663 1.41 3.565 2.905 3.572zm-.007-1.207c-.71 0-1.236-.572-1.236-1.282.004-.707.54-1.282 1.247-1.282.71 0 1.228.558 1.225 1.279.003.728-.526 1.285-1.236 1.285zm4.716-3.303a.863.863 0 00.852-.852.863.863 0 00-.852-.845.849.849 0 100 1.697zm0 3.566c.454 0 .849-.38.852-.852a.863.863 0 00-.852-.846.849.849 0 100 1.698zm4.931 1.005c1.83 0 2.934-1.392 2.937-3.789.004-2.38-1.115-3.743-2.936-3.743-1.826 0-2.934 1.36-2.937 3.743-.007 2.39 1.104 3.785 2.937 3.789zm0-1.275c-.834 0-1.374-.838-1.37-2.514.003-1.652.54-2.483 1.37-2.483.828 0 1.368.831 1.368 2.483.003 1.676-.537 2.514-1.367 2.514zm6.885 1.275c1.83 0 2.934-1.392 2.937-3.789.004-2.38-1.115-3.743-2.937-3.743-1.825 0-2.933 1.36-2.936 3.743-.008 2.39 1.104 3.785 2.936 3.789zm0-1.275c-.834 0-1.374-.838-1.37-2.514.003-1.652.54-2.483 1.37-2.483.828 0 1.367.831 1.367 2.483.004 1.676-.536 2.514-1.367 2.514z" fill="#B5B2C8"/><path fill="#E7E6ED" d="M70 464h30v1H70zm0-118h30v1H70zm0 182h30v1H70zm0-123h30v1H70zm0-236h30v1H70zm0-59h30v1H70zm0 118h30v1H70zm0 59h30v1H70z"/><path fill="#E7E9FF" fill-opacity=".5" d="M112 268h200v60H112z"/><path d="M112 268h4v60h-4v-60z" fill="#C1C8FF" fill-opacity=".5"/><path opacity=".88" d="M124.861 290h1.581v-2.949h1.67c2.016 0 3.098-1.21 3.098-2.889 0-1.666-1.069-2.889-3.076-2.889h-3.273V290zm1.581-4.249v-3.157h1.449c1.184 0 1.708.639 1.708 1.568s-.524 1.589-1.7 1.589h-1.457zm8.877 4.377c1.526 0 2.574-.746 2.847-1.884l-1.441-.162c-.208.554-.72.844-1.384.844-.998 0-1.658-.656-1.671-1.777h4.56v-.473c0-2.297-1.381-3.307-2.992-3.307-1.875 0-3.098 1.377-3.098 3.397 0 2.054 1.206 3.362 3.179 3.362zm-1.645-4.019c.047-.835.665-1.538 1.586-1.538.886 0 1.483.648 1.491 1.538h-3.077zm5.861 3.891h1.542v-3.848c0-.831.627-1.419 1.475-1.419.26 0 .584.047.716.089v-1.419a3.794 3.794 0 00-.554-.042c-.75 0-1.377.426-1.615 1.184h-.068v-1.09h-1.496V290zm9.931-4.815c-.213-1.108-1.1-1.816-2.634-1.816-1.576 0-2.65.776-2.646 1.986-.004.955.584 1.585 1.841 1.845l1.116.235c.601.132.883.375.883.745 0 .448-.486.784-1.219.784-.708 0-1.168-.306-1.3-.894l-1.504.144c.192 1.202 1.202 1.914 2.808 1.914 1.636 0 2.791-.848 2.796-2.088-.005-.933-.606-1.504-1.841-1.773l-1.117-.239c-.665-.149-.929-.379-.925-.758-.004-.443.486-.75 1.13-.75.711 0 1.086.388 1.206.818l1.406-.153zm4.268 4.943c1.917 0 3.136-1.351 3.136-3.375 0-2.029-1.219-3.384-3.136-3.384-1.918 0-3.137 1.355-3.137 3.384 0 2.024 1.219 3.375 3.137 3.375zm.008-1.236c-1.061 0-1.581-.946-1.581-2.143 0-1.198.52-2.157 1.581-2.157 1.044 0 1.564.959 1.564 2.157 0 1.197-.52 2.143-1.564 2.143zm5.98-2.727c0-.946.571-1.492 1.385-1.492.797 0 1.274.524 1.274 1.398V290h1.543v-4.168c.004-1.568-.891-2.463-2.242-2.463-.98 0-1.653.469-1.952 1.198h-.076v-1.112h-1.475V290h1.543v-3.835zm7.653 3.967c1.027 0 1.641-.481 1.922-1.031h.051V290h1.483v-4.381c0-1.73-1.41-2.25-2.659-2.25-1.376 0-2.433.614-2.774 1.807l1.44.205c.154-.448.588-.831 1.343-.831.716 0 1.108.366 1.108 1.01v.025c0 .443-.465.465-1.62.588-1.269.137-2.484.516-2.484 1.99 0 1.287.942 1.969 2.19 1.969zm.401-1.133c-.644 0-1.104-.294-1.104-.861 0-.593.516-.84 1.206-.938.405-.055 1.215-.157 1.415-.319v.771c0 .729-.588 1.347-1.517 1.347zm6.149-7.726h-1.543V290h1.543v-8.727z" fill="#C0C6FC"/><path opacity=".88" d="M275.999 290.099c1.57.011 2.624-1.068 2.621-2.507.003-1.374-.977-2.368-2.252-2.368-.781 0-1.47.38-1.818 1.005h-.049c.003-1.531.564-2.461 1.573-2.461.625 0 1.047.362 1.182.92h1.296c-.156-1.176-1.104-2.06-2.478-2.06-1.747 0-2.852 1.456-2.852 3.942-.003 2.667 1.382 3.522 2.777 3.529zm-.007-1.065c-.778 0-1.346-.643-1.349-1.403.007-.763.596-1.402 1.367-1.402.77 0 1.335.61 1.331 1.392.004.795-.578 1.413-1.349 1.413zm6.516 1.104c1.755.004 2.802-1.381 2.802-3.767 0-2.372-1.054-3.743-2.802-3.743-1.747 0-2.798 1.367-2.802 3.743 0 2.383 1.048 3.767 2.802 3.767zm0-1.111c-.905 0-1.473-.909-1.47-2.656.004-1.733.568-2.646 1.47-2.646.906 0 1.471.913 1.474 2.646 0 1.747-.565 2.656-1.474 2.656zm6.477.973h1.285v-3.317c0-.671.448-1.125 1.002-1.125.543 0 .916.365.916.926V290h1.261v-3.402c0-.614.365-1.04.987-1.04.518 0 .93.305.93.98V290h1.289v-3.661c0-1.218-.703-1.865-1.704-1.865-.792 0-1.396.391-1.637.998h-.057c-.21-.618-.739-.998-1.474-.998-.732 0-1.278.377-1.506.998h-.064v-.927h-1.228V290zm8.974 0h1.286v-5.455h-1.286V290zm.647-6.229c.408 0 .742-.312.742-.696 0-.387-.334-.699-.742-.699-.412 0-.746.312-.746.699 0 .384.334.696.746.696zm3.246 3.033c0-.788.476-1.243 1.154-1.243.664 0 1.062.437 1.062 1.165V290h1.286v-3.473c.003-1.307-.742-2.053-1.868-2.053-.817 0-1.378.391-1.627.998h-.064v-.927h-1.228V290h1.285v-3.196z" fill="#C8CDFF"/><path fill="#E7E9FF" fill-opacity=".5" d="M112 533h200v60H112z"/><path d="M112 533h4v60h-4v-60z" fill="#C1C8FF" fill-opacity=".5"/><path opacity=".88" d="M124.861 555h1.581v-2.949h1.67c2.016 0 3.098-1.21 3.098-2.889 0-1.666-1.069-2.889-3.076-2.889h-3.273V555zm1.581-4.249v-3.157h1.449c1.184 0 1.708.639 1.708 1.568s-.524 1.589-1.7 1.589h-1.457zm8.877 4.377c1.526 0 2.574-.746 2.847-1.884l-1.441-.162c-.208.554-.72.844-1.384.844-.998 0-1.658-.656-1.671-1.777h4.56v-.473c0-2.297-1.381-3.307-2.992-3.307-1.875 0-3.098 1.377-3.098 3.397 0 2.054 1.206 3.362 3.179 3.362zm-1.645-4.019c.047-.835.665-1.538 1.586-1.538.886 0 1.483.648 1.491 1.538h-3.077zm5.861 3.891h1.542v-3.848c0-.831.627-1.419 1.475-1.419.26 0 .584.047.716.089v-1.419a3.794 3.794 0 00-.554-.042c-.75 0-1.377.426-1.615 1.184h-.068v-1.09h-1.496V555zm9.931-4.815c-.213-1.108-1.1-1.816-2.634-1.816-1.576 0-2.65.776-2.646 1.986-.004.955.584 1.585 1.841 1.845l1.116.235c.601.132.883.375.883.745 0 .448-.486.784-1.219.784-.708 0-1.168-.306-1.3-.894l-1.504.144c.192 1.202 1.202 1.914 2.808 1.914 1.636 0 2.791-.848 2.796-2.088-.005-.933-.606-1.504-1.841-1.773l-1.117-.239c-.665-.149-.929-.379-.925-.758-.004-.443.486-.75 1.13-.75.711 0 1.086.388 1.206.818l1.406-.153zm4.268 4.943c1.917 0 3.136-1.351 3.136-3.375 0-2.029-1.219-3.384-3.136-3.384-1.918 0-3.137 1.355-3.137 3.384 0 2.024 1.219 3.375 3.137 3.375zm.008-1.236c-1.061 0-1.581-.946-1.581-2.143 0-1.198.52-2.157 1.581-2.157 1.044 0 1.564.959 1.564 2.157 0 1.197-.52 2.143-1.564 2.143zm5.98-2.727c0-.946.571-1.492 1.385-1.492.797 0 1.274.524 1.274 1.398V555h1.543v-4.168c.004-1.568-.891-2.463-2.242-2.463-.98 0-1.653.469-1.952 1.198h-.076v-1.112h-1.475V555h1.543v-3.835zm7.653 3.967c1.027 0 1.641-.481 1.922-1.031h.051V555h1.483v-4.381c0-1.73-1.41-2.25-2.659-2.25-1.376 0-2.433.614-2.774 1.807l1.44.205c.154-.448.588-.831 1.343-.831.716 0 1.108.366 1.108 1.01v.025c0 .443-.465.465-1.62.588-1.269.137-2.484.516-2.484 1.99 0 1.287.942 1.969 2.19 1.969zm.401-1.133c-.644 0-1.104-.294-1.104-.861 0-.593.516-.84 1.206-.938.405-.055 1.215-.157 1.415-.319v.771c0 .729-.588 1.347-1.517 1.347zm6.149-7.726h-1.543V555h1.543v-8.727z" fill="#C0C6FC"/><path opacity=".88" d="M275.999 555.099c1.57.011 2.624-1.068 2.621-2.507.003-1.374-.977-2.368-2.252-2.368-.781 0-1.47.38-1.818 1.005h-.049c.003-1.531.564-2.461 1.573-2.461.625 0 1.047.362 1.182.92h1.296c-.156-1.176-1.104-2.06-2.478-2.06-1.747 0-2.852 1.456-2.852 3.942-.003 2.667 1.382 3.522 2.777 3.529zm-.007-1.065c-.778 0-1.346-.643-1.349-1.403.007-.763.596-1.402 1.367-1.402.77 0 1.335.61 1.331 1.392.004.795-.578 1.413-1.349 1.413zm6.516 1.104c1.755.004 2.802-1.381 2.802-3.767 0-2.372-1.054-3.743-2.802-3.743-1.747 0-2.798 1.367-2.802 3.743 0 2.383 1.048 3.767 2.802 3.767zm0-1.111c-.905 0-1.473-.909-1.47-2.656.004-1.733.568-2.646 1.47-2.646.906 0 1.471.913 1.474 2.646 0 1.747-.565 2.656-1.474 2.656zm6.477.973h1.285v-3.317c0-.671.448-1.125 1.002-1.125.543 0 .916.365.916.926V555h1.261v-3.402c0-.614.365-1.04.987-1.04.518 0 .93.305.93.98V555h1.289v-3.661c0-1.218-.703-1.865-1.704-1.865-.792 0-1.396.391-1.637.998h-.057c-.21-.618-.739-.998-1.474-.998-.732 0-1.278.377-1.506.998h-.064v-.927h-1.228V555zm8.974 0h1.286v-5.455h-1.286V555zm.647-6.229c.408 0 .742-.312.742-.696 0-.387-.334-.699-.742-.699-.412 0-.746.312-.746.699 0 .384.334.696.746.696zm3.246 3.033c0-.788.476-1.243 1.154-1.243.664 0 1.062.437 1.062 1.165V555h1.286v-3.473c.003-1.307-.742-2.053-1.868-2.053-.817 0-1.378.391-1.627.998h-.064v-.927h-1.228V555h1.285v-3.196z" fill="#C8CDFF"/><path fill="#CDF4D5" d="M112 469h200v60H112z"/><path d="M112 469h4v60h-4v-60z" fill="#96E6B9"/><path opacity=".88" d="M124.861 491h1.581v-3.707h3.626v-1.326h-3.626v-2.369h4.01v-1.325h-5.591V491zm6.869 0h1.543v-3.848c0-.831.626-1.419 1.474-1.419.26 0 .584.047.716.089v-1.419a3.783 3.783 0 00-.554-.042c-.75 0-1.376.426-1.615 1.184h-.068v-1.09h-1.496V491zm7.386.128c1.526 0 2.574-.746 2.847-1.884l-1.441-.162c-.208.554-.72.844-1.385.844-.997 0-1.657-.656-1.67-1.777h4.56v-.473c0-2.297-1.381-3.307-2.992-3.307-1.875 0-3.098 1.377-3.098 3.397 0 2.054 1.206 3.362 3.179 3.362zm-1.645-4.019c.047-.835.665-1.538 1.585-1.538.887 0 1.483.648 1.492 1.538h-3.077zm8.758 4.019c1.526 0 2.574-.746 2.847-1.884l-1.44-.162c-.209.554-.721.844-1.385.844-.997 0-1.658-.656-1.671-1.777h4.56v-.473c0-2.297-1.381-3.307-2.992-3.307-1.875 0-3.098 1.377-3.098 3.397 0 2.054 1.206 3.362 3.179 3.362zm-1.644-4.019c.046-.835.664-1.538 1.585-1.538.886 0 1.483.648 1.491 1.538h-3.076zm14.01-.924c-.213-1.108-1.1-1.816-2.634-1.816-1.576 0-2.65.776-2.646 1.986-.004.955.584 1.585 1.841 1.845l1.116.235c.601.132.882.375.882.745 0 .448-.485.784-1.218.784-.708 0-1.168-.306-1.3-.894l-1.504.144c.192 1.202 1.201 1.914 2.808 1.914 1.636 0 2.791-.848 2.795-2.088-.004-.933-.605-1.504-1.84-1.773l-1.117-.239c-.665-.149-.929-.379-.925-.758-.004-.443.486-.75 1.13-.75.711 0 1.086.388 1.206.818l1.406-.153zm2.955-3.912h-1.543V491h1.543v-8.727zm4.441 8.855c1.918 0 3.137-1.351 3.137-3.375 0-2.029-1.219-3.384-3.137-3.384-1.917 0-3.136 1.355-3.136 3.384 0 2.024 1.219 3.375 3.136 3.375zm.009-1.236c-1.061 0-1.581-.946-1.581-2.143 0-1.198.52-2.157 1.581-2.157 1.044 0 1.564.959 1.564 2.157 0 1.197-.52 2.143-1.564 2.143zm7.706-5.437h-1.292v-1.569h-1.542v1.569h-.929v1.193h.929v3.639c-.009 1.231.886 1.837 2.045 1.802.439-.012.742-.098.908-.153l-.26-1.206c-.085.021-.26.06-.452.06-.388 0-.699-.137-.699-.759v-3.383h1.292v-1.193z" fill="#378053" fill-opacity=".7"/><path opacity=".88" d="M275.999 491.099c1.57.011 2.624-1.068 2.621-2.507.003-1.374-.977-2.368-2.252-2.368-.781 0-1.47.38-1.818 1.005h-.049c.003-1.531.564-2.461 1.573-2.461.625 0 1.047.362 1.182.92h1.296c-.156-1.176-1.104-2.06-2.478-2.06-1.747 0-2.852 1.456-2.852 3.942-.003 2.667 1.382 3.522 2.777 3.529zm-.007-1.065c-.778 0-1.346-.643-1.349-1.403.007-.763.596-1.402 1.367-1.402.77 0 1.335.61 1.331 1.392.004.795-.578 1.413-1.349 1.413zm6.516 1.104c1.755.004 2.802-1.381 2.802-3.767 0-2.372-1.054-3.743-2.802-3.743-1.747 0-2.798 1.367-2.802 3.743 0 2.383 1.048 3.767 2.802 3.767zm0-1.111c-.905 0-1.473-.909-1.47-2.656.004-1.733.568-2.646 1.47-2.646.906 0 1.471.913 1.474 2.646 0 1.747-.565 2.656-1.474 2.656zm6.477.973h1.285v-3.317c0-.671.448-1.125 1.002-1.125.543 0 .916.365.916.926V491h1.261v-3.402c0-.614.365-1.04.987-1.04.518 0 .93.305.93.98V491h1.289v-3.661c0-1.218-.703-1.865-1.704-1.865-.792 0-1.396.391-1.637.998h-.057c-.21-.618-.739-.998-1.474-.998-.732 0-1.278.377-1.506.998h-.064v-.927h-1.228V491zm8.974 0h1.286v-5.455h-1.286V491zm.647-6.229c.408 0 .742-.312.742-.696 0-.387-.334-.699-.742-.699-.412 0-.746.312-.746.699 0 .384.334.696.746.696zm3.246 3.033c0-.788.476-1.243 1.154-1.243.664 0 1.062.437 1.062 1.165V491h1.286v-3.473c.003-1.307-.742-2.053-1.868-2.053-.817 0-1.378.391-1.627.998h-.064v-.927h-1.228V491h1.285v-3.196z" fill="#467D6E" fill-opacity=".5"/></g></svg>