<svg style="border-radius: 6px" width="1000" height="1000" viewBox="0 0 1000 1000" fill="none" xmlns="http://www.w3.org/2000/svg">
<rect width="1000" height="1000" fill="url(#paint0_linear_205_2)"/>
<path fill-rule="evenodd" clip-rule="evenodd" d="M312.552 747.087C298.345 747.087 284.108 741.651 273.265 730.808C251.578 709.122 251.578 673.92 273.265 652.234L647.874 277.624C669.56 255.938 704.762 255.938 726.448 277.624C748.134 299.31 748.134 334.512 726.448 356.198L351.839 730.808C340.996 741.651 326.759 747.087 312.552 747.087ZM587.552 747.087C573.345 747.087 559.108 741.651 548.265 730.808C526.578 709.092 526.578 673.92 548.265 652.234L648.134 552.364C669.82 530.678 705.023 530.648 726.709 552.364C748.395 574.08 748.395 609.252 726.709 630.938L626.839 730.808C615.996 741.651 601.759 747.087 587.552 747.087ZM273.265 466.25C284.108 477.093 298.345 482.53 312.552 482.53C326.759 482.53 340.996 477.093 351.839 466.25L461.891 356.198C483.577 334.512 483.577 299.31 461.891 277.624C440.205 255.938 405.003 255.938 383.317 277.624L273.265 387.676C251.578 409.362 251.578 444.564 273.265 466.25Z" fill="white"/>
<defs>
<linearGradient id="paint0_linear_205_2" x1="225" y1="209" x2="766.5" y2="776.5" gradientUnits="userSpaceOnUse">
<stop stop-color="#FF8D47"/>
<stop offset="0.147634" stop-color="#FF7447"/>
<stop offset="0.454086" stop-color="#FF4247"/>
<stop offset="0.636926" stop-color="#E92A5B"/>
<stop offset="0.740367" stop-color="#DD1C67"/>
<stop offset="0.842991" stop-color="#D31071"/>
<stop offset="1" stop-color="#CF0283"/>
</linearGradient>
</defs>
</svg>
